<svg xmlns="http://www.w3.org/2000/svg" viewBox="0 0 1125 1125" version="1.2">
  <path style="stroke:none;fill-rule:nonzero;fill:#000;fill-opacity:1" d="M108.625 522.207h-62.23V293.016h61.125c47.683 0 64.07 24.75 64.07 60.77 0 27.972-15.649 46.558-38.203 50.605 27.293 5.058 42.574 23.968 42.574 54.558 0 39.934-20.02 63.258-67.336 63.258Zm-18.41-133.871h12.75c21.816 0 26.926-11.64 26.926-29.121 0-17.48-5.11-30.18-26.926-30.18h-12.89Zm0 34.547v62.933h14.176c22.23 0 28.398-11.27 28.398-31.28 0-20.013-6.305-31.653-28.539-31.653Zm204.359 99.324H187.332V293.016h106.645v37.125h-62.598v56.355h46.95v37.125h-46.95v61.461h63.195Zm51.781 0V330.141h-42.94v-37.125h132.097v37.125h-44.004v192.066Zm140.524 0V330.141h-42.945v-37.125H576.03v37.125h-44.047v192.066Zm207.215 0H586.71V293.016h106.644v37.125h-62.78v56.355h46.948v37.125h-46.949v61.461h63.52Zm96.519 0c-3.27-9.848-4.008-22.59-5.48-51.297-1.426-23.644-6.168-36.02-25.82-36.02h-9.434v87.407H705.46V293.016h58.594c49.476 0 70.605 26.543 70.605 66.933 0 35.656-15.648 53.457-38.941 57.461 24.351 5.473 31.3 23.277 32.773 51.477 1.84 29.12 1.473 41.816 6.903 53.136ZM757.84 399.238c24.027 0 32.219-9.476 32.219-34.918 0-22.539-8.375-34.914-32.22-34.914h-7.96v69.832ZM108.625 779.457h-62.23V550.313h61.125c47.683 0 64.07 24.707 64.07 60.726 0 28.016-15.649 46.555-38.203 50.606 27.293 5.105 42.574 24.011 42.574 54.558 0 39.977-20.02 63.254-67.336 63.254Zm-18.41-133.871h12.75c21.816 0 26.926-11.637 26.926-29.074 0-17.434-5.11-30.223-26.926-30.223h-12.89Zm0 34.55v62.934h14.176c22.23 0 28.398-11.273 28.398-31.285s-6.168-31.648-28.398-31.648Zm96.242 23.692V550.313h46.027v156.414c0 25.07 3.637 38.918 20.758 38.918s21.125-13.801 21.125-38.918V550.313h46.028v153.515c0 46.879-16.016 78.895-67.336 78.895s-66.602-32.016-66.602-78.895Zm183.973-3.312v13.8c0 19.645 7.96 32.204 23.289 32.204 13.808 0 20.758-9.2 20.758-24.383 0-16.375-8.747-22.219-22.602-31.282l-19.055-12.144c-22.183-13.8-41.836-29.488-41.836-67.672s23.657-63.668 60.387-63.668c39.676 0 60.8 24.012 60.8 68.04v13.109h-39.534v-13.48c0-20.747-6.54-31.65-21.13-31.65-12.702 0-18.917 9.844-18.917 24.75 0 14.907 6.906 23 18.414 30.18l20.758 13.11c26.554 15.64 44.414 31.652 44.414 66.933 0 41.082-24.762 63.992-62.598 63.992-38.617 0-63.332-23-63.332-68.73v-13.11Zm96.746-150.203h45.11v229.144h-45.11Zm153.734 0h41.883v229.144h-34.242l-56.016-133.41h-1.472v133.41h-41.75V550.313h41.425l48.742 120.992h1.43Zm166.434 229.144H679.96V550.313h106.644v37.082h-62.593v56.308h46.945v37.078h-46.945v61.504h63.332Zm45.75-78.941v13.8c0 19.645 8.008 32.204 23.289 32.204 13.808 0 20.762-9.2 20.762-24.383 0-16.375-8.747-22.219-22.602-31.282l-18.918-12.007c-22.184-13.801-41.836-29.489-41.836-67.672 0-38.184 23.656-63.668 60.387-63.668 39.676 0 60.8 24.015 60.8 68.039v13.11h-39.675V615.18c0-20.75-6.535-31.653-21.125-31.653-12.703 0-18.918 9.848-18.918 24.75 0 14.907 6.902 23.004 18.41 30.18l20.715 13.11c26.554 15.644 44.414 31.652 44.414 66.937 0 41.082-24.762 63.992-62.598 63.992-38.57 0-63.332-23.004-63.332-68.73v-13.114Zm133.711 0v13.8c0 19.645 8.008 32.204 23.289 32.204 13.808 0 20.758-9.2 20.758-24.383 0-16.375-8.747-22.219-22.598-31.282l-18.918-12.007c-22.188-13.801-41.84-29.489-41.84-67.672 0-38.184 23.66-63.668 60.434-63.668 39.629 0 60.758 24.015 60.758 68.039v13.11h-39.676V615.18c0-20.75-6.535-31.653-21.082-31.653-12.75 0-18.961 9.848-18.961 24.75 0 14.907 6.949 23.004 18.41 30.18l20.71 13.11c26.606 15.644 44.419 31.652 44.419 66.937 0 41.082-24.766 63.992-62.598 63.992-38.57 0-63.336-23.004-63.336-68.73v-13.114Zm-828.723 107.05h41.887v229.145h-34.2L89.708 903.3h-1.473v133.41h-41.84V807.566H87.82l48.79 120.758h1.472Zm166.434 229.144H197.18V807.567h106.6v37.125h-62.597v56.356h46.949v37.078h-46.95v61.46h63.333Zm51.691 0V844.692h-42.945v-37.125h132.097v37.125h-44.046v192.02Zm254.438-229.144h41.425l-38.57 229.145h-42.207l-18.965-127.66h-1.426l-18.414 127.66h-42.297l-38.57-229.145h42.942l20.023 132.399h1.473l19.652-132.399h33.832l20.02 132.399h1.472Zm178.953 129.868c0 65.097-18.918 102.222-68.075 102.222-49.156 0-68.394-37.125-68.394-102.222v-30.59c0-65.098 18.918-102.176 68.394-102.176 49.48 0 68.075 37.078 68.075 102.176Zm-89.524 21.437c0 26.59 4.004 44.027 21.45 44.027 17.445 0 21.496-17.437 21.496-44.027v-73.605c0-26.543-4.004-44.024-21.497-44.024-17.488 0-21.449 17.48-21.449 44.024Zm188.254 77.839c-3.316-9.8-4.004-22.542-5.476-51.25-1.43-23.69-6.168-36.019-25.825-36.019h-9.48v87.407h-44.418V807.566h58.594c49.527 0 70.605 26.543 70.605 66.934 0 35.656-15.648 53.457-38.937 57.46 24.394 5.474 31.297 23.278 32.77 51.661 1.843 29.074 1.472 41.817 6.905 53.09Zm-32.773-122.92c24.027 0 32.218-9.477 32.218-34.919 0-22.586-8.375-34.918-32.218-34.918h-8.008v69.836Zm176.793 122.92-28.953-88.003-13.438 33.813v54.19h-45.152V807.567h45.152v109.121l42.207-109.12h46.578l-41.426 100.011 42.207 129.133ZM47.594 236.57H1074l-10.445-151.722-1018.22 71.078Zm0 0"/>
</svg>
