<svg xmlns="https://www.w3.org/2000/svg" xml:space="preserve" fill-rule="evenodd" stroke-linejoin="round" stroke-miterlimit="2" clip-rule="evenodd" viewBox="0 0 800 800"><path fill="#425366" fill-rule="nonzero" d="M327.302.164c-10.905 0-18.174 7.27-18.174 18.174 0 10.903-7.271 18.174-18.174 18.174-30.897 0-54.523 23.626-54.523 54.523 0 10.904-7.27 18.173-18.174 18.173-10.903 0-18.173 7.271-18.173 18.174 0 10.903 7.27 18.174 18.173 18.174 30.897 0 54.523-23.626 54.523-54.523 0-10.905 7.271-18.174 18.174-18.174 30.897 0 54.523-23.626 54.523-54.523 0-10.903-7.27-18.172-18.175-18.172ZM436.349.164c-30.897 0-54.523 23.626-54.523 54.523 0 10.905-7.27 18.174-18.174 18.174-30.896 0-54.523 23.626-54.523 54.523 0 10.905 7.271 18.173 18.174 18.173 10.905 0 18.174-7.27 18.174-18.173 0-10.904 7.271-18.174 18.174-18.174 30.897 0 54.523-23.626 54.523-54.523 0-10.905 7.27-18.174 18.174-18.174s18.173-7.27 18.173-18.174c0-10.903-7.269-18.175-18.172-18.175ZM599.918 145.559c-30.897 0-54.523 23.626-54.523 54.523 0 10.905-7.27 18.174-18.174 18.174-10.905 0-18.174 7.27-18.174 18.174s7.271 18.173 18.174 18.173c30.897 0 54.523-23.626 54.523-54.523 0-10.904 7.271-18.173 18.174-18.173 10.903 0 18.174-7.271 18.174-18.174 0-10.903-7.269-18.174-18.174-18.174Z"/><path fill="#425366" fill-rule="nonzero" stroke="#425366" d="M690.79 145.559c-10.905 0-18.174 7.271-18.174 18.174 0 10.903-7.27 18.174-18.173 18.174-30.897 0-54.523 23.626-54.523 54.523 0 10.904 7.27 18.173 18.173 18.173 10.905 0 18.174-7.27 18.174-18.173 0-10.905 7.271-18.174 18.174-18.174 30.897 0 54.523-23.626 54.523-54.523 0-10.905-7.269-18.174-18.174-18.174ZM798.018 774.392l-34.531-87.238c-49.071-121.769-72.697-248.988-72.697-378.026 0-10.905-7.27-18.174-18.174-18.174H490.872c-10.905 0-18.174 7.271-18.174 18.174v72.697c0 10.905 7.271 18.173 18.174 18.173h109.046c10.905 0 18.174-7.27 18.174-18.173 0-10.904-7.271-18.174-18.174-18.174h-90.872v-36.349h145.395c1.818 129.037 27.262 254.441 74.515 374.391l25.444 61.794H539.943l-27.263-76.333c-50.888-143.577-76.332-294.424-76.332-447.09V200.08c0-10.904-7.271-18.173-18.174-18.173h-290.79c-10.905 0-18.174 7.27-18.174 18.173v39.984c0 152.664-25.444 303.511-76.333 447.09L1.982 776.21c-3.634 5.452-1.818 10.905 1.818 16.357 3.634 3.635 9.087 7.271 14.539 7.271h436.186c10.904 0 18.173-7.271 18.173-18.174 0-10.904-7.27-18.174-18.173-18.174H43.782l23.626-65.428c50.889-147.213 78.149-301.695 78.149-457.993v-21.81h254.441v21.81c0 18.174 0 34.531 1.818 50.888H200.082c-10.905 0-18.174 7.271-18.174 18.174 0 10.903 7.271 18.174 18.174 18.174h203.552c7.271 127.221 32.714 250.806 76.333 370.757l30.897 89.054c1.818 7.271 9.087 12.722 16.357 12.722h254.441c5.453 0 10.905-3.635 14.54-7.271 3.634-3.636 5.452-12.723 1.816-18.175Z"/><path fill="#5a7b35" d="M-.12 760.671h800v40.662h-800z"/></svg>