<svg xmlns="http://www.w3.org/2000/svg">
  <symbol viewBox="0 0 152.02 246.85" id="icon-leaf1">
    <title id="svgtitle">Understanding your business</title>
    <path d="M24.76,244.27s-61.07-53.33,8.6-135.9S134.85,35.26,145.17,0c0,0-9.46,27.52,0,70.53S155.5,171.16,140,191.8s-54,48.91-98.91,55c0,0,82.28-59.46,81.71-182.34C122.81,64.51,97,214.16,24.76,244.27Z" fill="#207737" />
  </symbol>
  <symbol viewBox="0 0 210 250.33" id="icon-leaf10">
    <path d="M210,95.27l-40.77,1.32.44-2.71C179.4,33.38,140.46,0,140.46,0,68.15,41.72,61.89,75.1,61.89,75.1L25,60.5C-.7,119.6,41.72,153,41.72,153L0,146c1.39,34.77,52.15,74.4,52.15,74.4,2.37.94,4.7,1.8,7,2.6-6,13.89-9.78,22.43-9.78,22.43l12.52,4.87q7.23-11.39,13.47-22.66C148.78,244,185,187.75,185,187.75l-41-2.78C191.23,169.67,210,95.27,210,95.27Z"
    fill="#207737" />
  </symbol>
  <symbol viewBox="0 0 189.71 237.22" id="icon-leaf11">
    <path d="M144.71,81.07a36.77,36.77,0,0,0-6.12-.75c31.11-14.31,59-38.93,9-73.67,0,0-57.56-29.58-65.09,36,0,0-2.12,6.84-1.26,17.43C64.43,28.53,36.1-3,4.36,52.87c0,0-24.26,60,41.73,61.58,0,0,7.91,1.73,19.57-.7C34,133.52-7.08,169.69,58.5,197.08c0,0,50.8,13.68,56.09-31.78,3.13,25.31,2.47,51.86-7.68,71.92l15.19-2.44s20.84-13.59,3.89-73.1c15.54,16.4,35.71,20,58.69-17.87C184.68,143.81,210.63,84.52,144.71,81.07Z"
    fill="#207737" />
  </symbol>
  <symbol viewBox="0 0 219.36 214.26" id="icon-leaf12">
    <path d="M114.62,78.48S100.1-.6,196.28,0c0,0-5.82,110.4-74,88.71,0,0,10.64-54.63,47.88-70.38C170.15,18.33,132.17,33,114.62,78.48Z" fill="#207737" />
    <path d="M108.27,122.91s31-68.29,111.09-2.47c0,0-81.85,73.48-121.31,16.88,0,0,45.63-31.53,98.15-20C196.21,117.32,147.05,95.65,108.27,122.91Z" fill="#207737" />
    <path d="M99.2,114.38s38.63-64.26-61.05-92.84c0,0-14,109.1,55,109.44,0,0,0-55.46-39.27-92.15C53.87,38.82,99.62,67,99.2,114.38Z" fill="#207737" />
    <path d="M71.91,182.09s27.27-23.57,64.42-14.72S173.22,212,173.22,212s-67.48,13.33-103.38-25.37c0,0,43.42-13.8,74.12,3.19C144,189.87,100.42,164.6,71.91,182.09Z" fill="#207737" />
    <path d="M62.52,187.21s15.6-84.54-57.42-89.49c0,0-17.3,21.9,11.78,55.31s41.69,35.56,41.69,35.56S47.82,136.3,22.32,118.7C22.32,118.7,59.56,130.73,62.52,187.21Z" fill="#207737" />
  </symbol>
  <symbol viewBox="0 0 203.7 182.5" id="icon-leaf13">
    <title id="svgtitle">Project Management</title>
    <path d="M0,172.12S-.27,64,60.11,31.68,203.7,0,203.7,0s-25.77,12.11-34.4,32.84-6.57,70.09-25.44,86.26S85.34,177.41,6.41,182.5c0,0,52.68-121.5,129.76-153.78C136.17,28.72,54,48,0,172.12Z" fill="#207737" />
  </symbol>
  <symbol viewBox="0 0 170.02 196.89" id="icon-leaf14">
    <path d="M170,132c0,53-36.19,64.37-81.51,64.89-1.15,0-2.32,0-3.49,0-1.9,0-3.8,0-5.69-.05C35,196,0,184.13,0,132S35,6.29,79.33.4A38.82,38.82,0,0,1,85,0c1.17,0,2.34.05,3.49.16a50.18,50.18,0,0,1,21.7,7.31,70.13,70.13,0,0,1,7.54,5.24,93.18,93.18,0,0,1,12.78,12.34q3.12,3.56,6,7.53a145,145,0,0,1,10.61,16.58c1.67,3,3.28,6.13,4.8,9.29A191.65,191.65,0,0,1,167.68,107c.67,3.73,1.2,7.43,1.57,11.08A129.7,129.7,0,0,1,170,132Z"
    fill="#207737" />
    <path d="M169.25,118.12c-.37-3.65-.9-7.35-1.57-11.08l-77,72V149.84L152,58.45c-1.52-3.16-3.13-6.27-4.8-9.29l-56.44,84.2V101l45.83-68.38q-2.88-4-6-7.53L90.71,84.48V53.06l27-40.35a70.13,70.13,0,0,0-7.54-5.24l-19.5,29.1V.4C90,.29,89.24.23,88.51.16h-.13C87.26.06,86.14,0,85,0s-2.24.06-3.37.15h-.13c-.74.06-1.47.13-2.2.24V36.57L59.83,7.47a69.43,69.43,0,0,0-7.54,5.24l27,40.35V84.48L39.51,25.05q-3.12,3.56-6,7.53L79.33,101v32.4L22.88,49.16c-1.67,3-3.28,6.13-4.8,9.29l61.24,91.39v29.24l-77-72c-.67,3.73-1.21,7.43-1.57,11.08l78.54,73.54v5.18c1.89,0,3.79.05,5.69.05s3.81,0,5.69-.05v-5.18Z"
    fill="#fff" />
  </symbol>
  <symbol viewBox="0 0 302.67 167.77" id="icon-leaf15">
    <path d="M150.7,93.47a109.35,109.35,0,0,0-4.93-15,140.21,140.21,0,0,0-6.65-14c-2.44-4.5-5.1-8.83-7.87-13l-2.14-3.19-1-1.48-.51-.74-.31-.44-.36-.46-1.44-1.84A19.83,19.83,0,0,0,124,41.47l-1.55-1.64-.78-.81c-.26-.27-.54-.5-.81-.75a69.24,69.24,0,0,0-13.63-9.78,122.13,122.13,0,0,0-14.27-6.68c-4.79-1.91-9.62-3.54-14.45-5a268.75,268.75,0,0,0-29.18-6.66C44.44,9.31,39.54,8.62,34.64,8c-2.45-.31-4.91-.58-7.37-.84l-3.71-.36-1.87-.16-2-.15L0,5,11.79,21.69c.2.28.4.55.6.82l.31.4c.05.07.1.12.16.21l.17.28c.45.75.92,1.45,1.38,2.23l1.37,2.48c.47.82.88,1.75,1.32,2.61.9,1.73,1.68,3.61,2.51,5.44s1.54,3.76,2.31,5.63l2.13,5.76,2,5.85,1.83,5.91c.59,2,1.11,4,1.66,6l.41,1.5.36,1.51.73,3c.24,1,.5,2,.71,3l.64,3c.43,2,.89,4,1.22,6.09s.76,4.07,1.06,6.12l.87,6.15c.16,1,.22,2,.34,3l.33,3,.17,1.52c.06.5.11,1,.14,1.56l.2,3.21.43,6.65a38.36,38.36,0,0,0,4.31,14.44,44.46,44.46,0,0,0,8.87,11.52,63.05,63.05,0,0,0,11.15,8.26,88,88,0,0,0,12.08,5.88A118.72,118.72,0,0,0,86,159q6.32,1.77,12.71,3,3.2.62,6.4,1.12t6.43.85c4.29.49,8.58.88,12.88,1-4.2-.9-8.36-1.93-12.47-3.08q-3.08-.87-6.13-1.83t-6.06-2c-4-1.39-8-2.87-11.84-4.53s-7.65-3.45-11.28-5.44a91.18,91.18,0,0,1-10.35-6.58,54.27,54.27,0,0,1-8.69-8,33.62,33.62,0,0,1-5.9-9.34,25.44,25.44,0,0,1-1.52-5.06,28.78,28.78,0,0,1-.55-5.21l.11-6.19.06-3.21c0-.52,0-1.08,0-1.65l0-1.69c-.06-2.24-.09-4.52-.22-6.75l-.47-6.62c-.17-2.21-.45-4.4-.67-6.6s-.53-4.39-.85-6.58l-.48-3.29c-.16-1.1-.38-2.18-.57-3.27l-.59-3.27-.3-1.63L45.3,61.6c-.47-2.16-.91-4.34-1.41-6.49l-1.6-6.46-1.81-6.42-2-6.38c-.76-2.12-1.47-4.24-2.28-6.36l-.79-2,3.91.68.41.2c1.48.73,2.95,1.49,4.4,2.26,2.91,1.55,5.76,3.2,8.56,4.9S58.2,39,60.88,40.83s5.32,3.76,7.88,5.76,5.07,4,7.5,6.18,4.8,4.33,7.09,6.59A165.62,165.62,0,0,1,96.31,73.63a170.66,170.66,0,0,1,11.2,15.55,169.2,169.2,0,0,1,9.38,16.61,155.88,155.88,0,0,1,7.44,17.4c1,3,2,5.92,2.81,8.85.4,1.46.76,2.93,1,4.31.1.47.18.93.25,1.36-.71,2-1.39,4-2.06,6.07-.39,1.2-.77,2.39-1.15,3.71-.19.68-.37,1.32-.58,2.31-.05.26-.11.55-.17,1a10.24,10.24,0,0,0-.08,1c0,.13,0,.24,0,.47s0,.34,0,.72a8.65,8.65,0,0,0,.23,1.33,8.4,8.4,0,0,0,1.72,3.41c.9,1.78,6,4,8.31,3a8.6,8.6,0,0,0,3.52-1.52,8.27,8.27,0,0,0,1.08-.92c.3-.3.33-.34.5-.53a10.55,10.55,0,0,0,.79-1.05c.3-.45.44-.7.58-1,.51-.92.8-1.51,1.11-2.15l.85-1.79,1.55-3.43,1.47-3.38.72-1.69.36-.85.38-.94a72.77,72.77,0,0,0,4.49-15.72,77.13,77.13,0,0,0,.92-8.18,80.2,80.2,0,0,0,0-8.2A84.87,84.87,0,0,0,150.7,93.47ZM117.56,82.09c-2.07-2.72-4.26-5.36-6.5-7.93s-4.57-5.08-7-7.51-4.87-4.78-7.41-7-5.14-4.45-7.81-6.55-5.42-4.08-8.21-6S75,43.34,72.12,41.64s-5.87-3.31-8.86-4.83-6.05-2.9-9.13-4.2q-4.36-1.81-8.81-3.34l.48.09A249.62,249.62,0,0,1,72.69,36c4.37,1.32,8.66,2.8,12.78,4.48a102.41,102.41,0,0,1,11.8,5.6,54.77,54.77,0,0,1,9.78,6.95c.17.16.37.3.52.47L108,54l.93,1a7.76,7.76,0,0,1,.84,1l.79,1,.2.24v0l0,0,.06.09.13.18.52.74,1,1.47,1.9,2.79c2.54,3.8,4.91,7.67,7.12,11.59a120.41,120.41,0,0,1,6,11.92,89.7,89.7,0,0,1,4.29,12.25,77.42,77.42,0,0,1,1.87,9.13q-2.2-4.22-4.6-8.3A177.83,177.83,0,0,0,117.56,82.09Z"
    fill="#207737" />
    <path d="M272.49,6.52l-1.34.31-.66.17-.5.16c-.65.21-1.38.44-1.92.65s-1.17.44-1.71.66l-1.6.67c-2.07.91-4.05,1.84-6,2.8-3.84,1.95-7.53,4-11.17,6.08s-7.21,4.27-10.75,6.48-7,4.54-10.45,6.89-6.83,4.79-10.2,7.25-6.65,5-9.89,7.69-6.45,5.33-9.58,8.11-6.17,5.71-9.15,8.67l-2.21,2.27q-1.11,1.13-2.18,2.3c-.71.78-1.44,1.55-2.14,2.34L179,72.45c-.69.79-1.38,1.66-2.06,2.51s-1.41,1.71-2,2.52l-1.83,2.45,0,0-.09.12-.06.08-.11.17-.23.33-.46.67-.92,1.33a96.19,96.19,0,0,0-6.43,11.16A92.73,92.73,0,0,0,160,105.68,93.85,93.85,0,0,0,156.86,118a97.18,97.18,0,0,0-1.49,12.47c-.12,2.08-.15,4.16-.15,6.24s.11,4.15.27,6.21a72.54,72.54,0,0,0,1.88,12.2,87.32,87.32,0,0,1,.35-12.18,107.34,107.34,0,0,1,1.8-11.93,104.71,104.71,0,0,1,3.11-11.53,95.76,95.76,0,0,1,10.05-21.2,96.93,96.93,0,0,1,6.88-9.33l1.81-2.12,2.07-2.25c.7-.79,1.36-1.4,2-2.09s1.32-1.34,2-2c2.8-2.72,5.76-5.33,8.75-7.88s6.12-5,9.3-7.36,6.37-4.73,9.65-7,6.61-4.44,9.94-6.61,6.73-4.27,10.15-6.31,6.88-4,10.35-6l.09-.05q-1.26,2.72-2.4,5.51l-1.24,3.49c-.2.59-.42,1.16-.6,1.76l-.5,1.8c-.34,1.2-.66,2.4-1,3.61l-.71,3.7L239,61l0,.23,0,.34-.06.4-.11.81-.11.81-.06.41-.05.46-.21,1.84c-.26,2.4-.44,4.66-.59,7-.29,4.56-.44,9-.59,13.37s-.23,8.63-.46,12.8-.55,8.22-1.11,12.08a61.08,61.08,0,0,1-2.5,10.75c-.3.79-.58,1.6-.92,2.33s-.69,1.45-1,2.16c-.18.36-.39.65-.58,1a8.56,8.56,0,0,1-.61.95l-.64.9-.69.83c-.12.14-.22.28-.34.41l-.38.37c-.25.24-.48.52-.75.75a18.58,18.58,0,0,1-1.65,1.33l-.43.31-.21.16-.05,0,.16-.1,0,0,0,0-.17.11-1.39.86-1.39.86-.69.43c-.23.15-.46.29-.66.4-3.23,1.91-6.85,3.85-10.46,5.52a109.85,109.85,0,0,1-11.15,4.34,92.71,92.71,0,0,1-11.5,3c-2.63.5-5.27.87-7.88,1.11,0-.61,0-1.22.05-1.83s.05-1.36.11-2l.15-2.06.22-2.06c.33-2.75.75-5.52,1.34-8.26l.43-2.06.51-2.05c.18-.68.33-1.37.52-2.05l.59-2c.36-1.37.81-2.72,1.25-4.07s.92-2.7,1.41-4c.25-.67.48-1.35.74-2l.82-2,.82-2c.28-.66.59-1.31.89-2l.89-2c.29-.66.6-1.31.93-2L193.1,102c1.39-2.54,2.75-5.12,4.29-7.59s3.09-5,4.67-7.43l2.52-3.61,1.27-1.81,1.33-1.76,2.65-3.55c.91-1.16,1.86-2.3,2.78-3.46,1.83-2.34,3.82-4.53,5.76-6.8,1-1.14,2-2.22,3-3.32l3-3.29c2.06-2.17,4.19-4.27,6.29-6.42l6.51-6.24q3.35-3,6.69-6.11-3.87,2.35-7.74,4.77l-7.54,5.11c-2.43,1.82-4.9,3.6-7.32,5.46l-3.56,2.88c-1.19,1-2.39,1.91-3.52,2.94-2.3,2-4.64,4-6.83,6.16-1.11,1.06-2.23,2.11-3.33,3.19l-3.22,3.32-1.6,1.67-1.54,1.73-3.08,3.48-3,3.6c-.49.61-1,1.19-1.46,1.81l-1.4,1.87c-1.91,2.47-3.65,5.06-5.42,7.64s-3.4,5.28-4.91,8c-.39.69-.79,1.36-1.16,2.06l-1.09,2.1-1.09,2.11c-.35.71-.68,1.43-1,2.14-.68,1.43-1.36,2.87-2,4.34s-1.26,2.93-1.81,4.43l-.84,2.24c-.28.75-.51,1.52-.77,2.28l-.75,2.28-.68,2.32c-.91,3.09-1.65,6.24-2.28,9.43a84.46,84.46,0,0,0-1.33,9.76q-.11,1.24-.16,2.5c0,.83-.06,1.69-.08,2.54s0,1.71,0,2.61h0c-.78,7.56,2.88,9.82,2.88,9.82l.32,0h1.44l1.36,0-.05.08c2,.12,4,.29,6.4.35a90.76,90.76,0,0,0,14.44-.93,106,106,0,0,0,13.94-2.93,128.32,128.32,0,0,0,13.38-4.67A135.34,135.34,0,0,0,230.46,153c.28-.15.52-.29.75-.42l.7-.41,1.41-.83,1.41-.83.18-.11.25-.15.11-.08.46-.31.91-.62a38.52,38.52,0,0,0,3.49-2.7c.56-.48,1.07-1,1.6-1.52l.79-.77c.25-.27.49-.55.73-.82.48-.55,1-1.1,1.43-1.66L246,140c.44-.57.82-1.17,1.2-1.77s.78-1.2,1.11-1.8c.67-1.22,1.35-2.44,1.89-3.68s1.07-2.47,1.56-3.71a73.27,73.27,0,0,0,3.66-14.61c.73-4.76,1.12-9.39,1.4-13.93s.43-9,.56-13.33.24-8.61.47-12.75c.12-2.05.27-4.14.46-6.07l.15-1.41,0-.35.05-.4.11-.81.11-.81.05-.4v-.09l0-.15.26-1.36.49-2.72c.24-.9.48-1.8.71-2.71l.34-1.36c.13-.45.29-.89.44-1.34l.88-2.69a79.08,79.08,0,0,1,4.81-10.47,97.52,97.52,0,0,1,6.35-9.87c1.17-1.58,2.38-3.14,3.64-4.62l.95-1.11,1-1.07c.32-.37.64-.69,1-1l.46-.48.37-.37L302.67,0Z"
    fill="#207737" />
  </symbol>
  <symbol viewBox="0 0 175.34 184.53" id="icon-leaf16">
    <path d="M157.93,1.84c-.69.07-1.17.14-1.74.22s-1.06.15-1.59.23c-1.06.15-2.09.33-3.12.51s-2.05.36-3.07.56-2,.37-3,.6c-2,.43-4,.84-6,1.33l-3,.71c-1,.24-2,.52-3,.78-2,.52-4,1-5.92,1.63s-3.93,1.12-5.87,1.76L115.75,12,110,14c-1,.33-1.92.68-2.86,1.06l-2.85,1.1c-1.9.74-3.8,1.44-5.67,2.25L93,20.8c-1.87.78-3.7,1.67-5.56,2.5l-2.76,1.27-1.38.64-1.38.69-5.49,2.76c-.91.46-1.84.92-2.72,1.39l-2.61,1.43-5.23,2.86-.65.36-.42.23-.34.2-1.34.81-2.68,1.62c-.88.56-1.74,1.16-2.61,1.73s-1.75,1.14-2.58,1.77c-1.67,1.26-3.38,2.44-5,3.8l-2.41,2L45.54,49l-1.15,1-1.11,1.1-2.21,2.2c-1.39,1.55-2.85,3-4.15,4.65a89.91,89.91,0,0,0-7.31,10c-1.12,1.73-2.14,3.52-3.14,5.31L25.06,76c-.47.91-.88,1.85-1.32,2.77a89.57,89.57,0,0,0-4.33,11.42A86.18,86.18,0,0,0,16.68,102a65.26,65.26,0,0,0-.91,12,76.42,76.42,0,0,1,2.81-11.52,97.26,97.26,0,0,1,9.86-21.15,89.77,89.77,0,0,1,6.7-9.38,85.83,85.83,0,0,1,7.76-8.39c1.33-1.35,2.81-2.56,4.21-3.83l2.21-1.79,1.1-.89,1.15-.84,2.28-1.68,2.36-1.57c1.54-1.09,3.2-2,4.8-3,.8-.5,1.65-.91,2.47-1.37s1.65-.91,2.49-1.34L68.52,46l1.27-.62.32-.15,0,0,0,0,.08,0,.17-.08.68-.3,5.44-2.42,2.72-1.21c.9-.39,1.79-.73,2.68-1.1l5.35-2.16,1.34-.54,1.37-.5,2.73-1c1.82-.67,3.62-1.39,5.46-2l5.5-1.88c1.82-.65,3.69-1.19,5.53-1.77s3.69-1.18,5.55-1.68l5.57-1.6,5.6-1.46c1.86-.51,3.75-.9,5.62-1.34s3.76-.84,5.64-1.22,3.76-.77,5.64-1.11l.42-.08a56.23,56.23,0,0,0-2.12,7.4c-.17.71-.3,1.46-.42,2.2l-.18,1.11c0,.2-.06.34-.09.59l-.06.46-.48,3.77c-.61,4.89-1.22,9.65-1.88,14.41s-1.45,9.45-2.35,14.09-2,9.21-3.15,13.64A96,96,0,0,1,128.2,92c-.44.94-.85,1.94-1.32,2.82-.23.45-.45.92-.69,1.34l-.73,1.26c-.23.44-.5.79-.75,1.17A12,12,0,0,1,124,99.7l-.76,1c-.26.27-.52.54-.76.82l-.18.21-.19.16-.36.32-.35.32-.33.22-.31.24c-.1.11-.2.1-.29.16l-.27.15-.06,0,0,0h0l-.2.1-.42.2-6.66,3.18-3.33,1.59-3.36,1.68-6.72,3.36-6.7,3.37-6.57,3.41-13.13,6.84c-4.36,2.3-8.74,4.56-13.08,6.9l-13,7c-4.34,2.34-8.69,4.65-13,7L24,153.38c.13-.46.25-.92.38-1.38l1.39-4.79c.49-1.59,1-3.18,1.48-4.76s1-3.17,1.58-4.74,1.1-3.14,1.67-4.7l1.77-4.67,1.85-4.64c1.29-3.06,2.6-6.13,4-9.13.68-1.52,1.42-3,2.17-4.49s1.47-3,2.27-4.45,1.54-3,2.36-4.39l2.49-4.32c.85-1.43,1.76-2.82,2.63-4.23s1.81-2.79,2.74-4.17c1.82-2.79,3.85-5.42,5.84-8.1l3.15-3.87.79-1,.83-.93L65,72.77l1.67-1.87c.57-.61,1.17-1.18,1.75-1.78l1.76-1.78c.6-.59,1.16-1.21,1.79-1.76l3.71-3.38c.61-.58,1.27-1.09,1.92-1.61l2-1.58,2-1.59L83.62,56l2.06-1.47c.69-.48,1.36-1,2.09-1.43l4.31-2.68c.36-.22.72-.46,1.09-.66l1.12-.6,2.25-1.2,2.26-1.2c.75-.41,1.55-.71,2.33-1.06l4.69-2.12-5,1.28c-.83.24-1.68.41-2.5.7l-2.45.85-2.46.85-1.23.43c-.41.14-.8.33-1.2.5-1.6.68-3.21,1.35-4.8,2.06-.81.33-1.57.76-2.35,1.16l-2.33,1.2-2.33,1.21-2.25,1.36-2.25,1.37c-.75.46-1.51.9-2.22,1.42l-4.33,3c-.74.49-1.41,1.06-2.1,1.6L64,64.17c-.69.55-1.39,1.09-2.06,1.66l-2,1.75-2,1.76-1,.88-.95.92-3.77,3.72c-2.39,2.59-4.84,5.15-7.07,7.89s-4.41,5.51-6.55,8.33l-3.06,4.32c-1,1.45-2,2.94-2.93,4.41s-1.9,3-2.81,4.49-1.83,3-2.68,4.56c-1.77,3.06-3.41,6.18-5,9.31l-2.35,4.74-2.21,4.8c-.72,1.61-1.41,3.23-2.11,4.85s-1.34,3.26-2,4.89-1.28,3.29-1.92,4.93-1.22,3.31-1.8,5c-1.15,3.34-2.24,6.71-3.26,10.11-.5,1.71-1,3.41-1.46,5.14-.24.86-.46,1.74-.69,2.61S3.85,167,3.62,168L0,184.53l15.57-7.66,26.48-13,26.43-13.11c4.41-2.16,8.79-4.39,13.19-6.58l13.19-6.55L108,131.12l6.5-3.21,3.25-1.6,3.34-1.57,6.68-3.13.41-.2-.1,0,.09,0,.17-.09.34-.17,1.36-.71a13.83,13.83,0,0,0,1.31-.76l1.19-.83,1.18-.85c.36-.29.69-.6,1-.9l1-.92.5-.46.44-.47c.58-.63,1.16-1.27,1.72-1.91l1.48-1.93c.52-.65.9-1.29,1.34-1.94s.87-1.3,1.22-1.95l1.11-1.95c.35-.65.66-1.29,1-1.94.68-1.3,1.2-2.58,1.79-3.87a115.09,115.09,0,0,0,5.11-15.33c1.35-5.08,2.36-10.14,3.24-15.18s1.6-10.07,2.23-15.08,1.11-10,1.55-14.92l.34-3.57,0-.46,0-.32.1-.71c.06-.47.12-.95.22-1.43a39.31,39.31,0,0,1,1.53-5.86A53.81,53.81,0,0,1,163.09,21c.45-1,.92-1.92,1.42-2.85.25-.46.5-.93.76-1.37l.38-.65.3-.5L175.34,0Z"
    fill="#207737" />
  </symbol>
  <symbol viewBox="0 0 230.25 231.87" id="icon-leaf2">
    <path d="M170.94,216.07c-50.76,30.82-91.77,11.9-120.61-17,19-23.09,48.36-42.28,77-57.08,19.88-.39,61.88,13.48,61.88,13.48-14.68-14.47-37.44-19.2-47.43-20.62a544,544,0,0,1,71.91-27.94c-41.67,4.34-82.68,23-114.78,41.89,5.52-9.23,12.52-26.57,5.33-49.08,0,0-5.83,38.5-17.34,56.39a470,470,0,0,0-44.05,31.38c-8.66-19-23.13-66.13,28.05-95.79,65.3-37.86,159.34,9.52,159.34,9.52S223.58,184.11,170.94,216.07Z"
    fill="#207737" />
    <path d="M26.32,142.81a68.18,68.18,0,0,1,18.34-40.86C39,91.93,34,84.53,34,84.53A62.1,62.1,0,0,1,49.69,97,100.15,100.15,0,0,1,66.82,84.62,107.57,107.57,0,0,1,80.42,78C90.3,55.83,103,33.89,119.16,15.42a538.58,538.58,0,0,0-29.6,59.33c3.46-1.07,7-2,10.64-2.79l1.21-8,2.32,7.26A142,142,0,0,1,119,69.3a59.6,59.6,0,0,1,15.24-1.62l-2.51,1.17a199.16,199.16,0,0,1,30.25,2.54C152.58,31.94,127.43,0,127.43,0S26.25,29.16,4.08,101.31c-13.18,42.88,8.16,67.47,27.64,80.36C27.93,171,24.93,157.38,26.32,142.81Z"
    fill="#207737" />
  </symbol>
  <symbol viewBox="0 0 171.12 205.68" id="icon-leaf3">
    <title id="svgtitle">Responsive Web Design</title>
    <path d="M168.77,127.94c-13.93,60.36-57.92,77.23-100.52,77.73-3.43-31,3.62-66.92,13.41-99.09,14.18-15.14,55.12-36.42,55.12-36.42-21.5.43-41.6,14-49.94,20.42a567.48,567.48,0,0,1,31.48-74.08C91.24,50.8,75.34,95,66.06,132.76c-2.88-10.85-10.74-28.7-32.8-39.72,0,0,24.52,32.39,29.51,54a490.25,490.25,0,0,0-8.63,55.76C33.66,195.47-12.1,172,3,112.12,22.26,35.77,126.13,0,126.13,0S183.22,65.35,168.77,127.94Z"
    fill="#207737" />
  </symbol>
  <symbol viewBox="0 0 260.46 158.18" id="icon-leaf4">
    <title id="svgtitle">Migration and Implementation</title>
    <path d="M178.49,154.65S168.79,6.27,0,38.87c0,0,21.1,119.71,159.19,119.31,0,0-3.59-45.72-80.56-79C78.64,79.15,138.33,77.68,178.49,154.65Z" fill="#207737" />
    <path d="M180.57,112.93S143.17,4.79,260.17,0c0,0,8.63,83-68.09,112.93,0,0,2.6-49,25.59-66.9C217.67,46,184.41,60.28,180.57,112.93Z" fill="#207737" />
  </symbol>
  <symbol viewBox="0 0 218 209.29" id="icon-leaf5">
    <title id="svgtitle">Development and Testing</title>
    <path d="M38,109.24l.84.15A.88.88,0,0,0,38,109.24Z" fill="#207737" />
    <path d="M148.16,156.18c18.39,13.35,32.5,6.14,27.63,5.5-5.34-.7-.93-4.85-.93-4.85,15.4-4.09,39.85-23.45,39.85-23.45s-18-6.71-23-10.88-3.14-11.09-3.14-11.09C201.87,97.33,209.31,82,208.36,78S218,69.41,218,69.41s-14.47-.17-21.2-7.88S199,34.79,199,34.79a32,32,0,0,1-10.84-5.15c-6-4.2-5-29.64-5-29.64C168.47,23.41,161.9,19.19,161.9,19.19L159,26.07c-2.26,5.39-10,3.71-13.32,2.73-.15,1.92-1.67,6.8-6.89,18.37-11.21,24.85-23.87-8.5-23.87-8.5-5-1.76-18.2-27.36-18.22-26.55S91.9,29.39,84.89,30.52,66.78,17.91,66.78,17.91a15.61,15.61,0,0,1-11.66,4.47c-7.5-.23-21-14.31-21-14.31s9.66,17.44,11,25.53-3.59,12.22-3.59,12.22,6.16,9,4.52,18.9S29.4,74.94,29.4,74.94c7.44,2.1,34.39,23.83,34.69,31.61.27,7-20.77,3.63-25.24,2.84.61.54,1,2.43-1.38,8.68C34,127.41,4.29,132.95,0,133.71c1.21-.07,5.09.25,17,3.57,16.21,4.52,15,18.15,15,18.15,3-.45,16.08,0,19.47,11.85s-8.11,19.86-8.11,19.86c11.26-8.77,27.27-6.41,36.72-8.8s11.13-4.49,18,0-13.81,30.94-13.81,30.94c25.58-30,32.35-23.68,32.35-23.68,16.37-18.27,14.19-8.14,14.19-8.14,18-8.57,12-25.64,12-25.64.35.31.69.6,1,.9Z"
    fill="#207737" />
  </symbol>
  <symbol viewBox="0 0 175.34 198.19" id="icon-leaf6">
    <title id="svgtitle">Content Creation</title>
    <path d="M112.11,113.34C96.31,91.26,44.72,90.52,44.72,90.52c29.08-2.41,47.27,2.27,56.85,6.14-22.72-34-52.59-66.85-89-81.49,0,0,73.11,20.53,122.37,119.53.61-10,3.16-23.92,11.51-35.75a111.32,111.32,0,0,0-6.65,46,369.61,369.61,0,0,1,15.72,40.94c49.26-78.2-8.72-117.57-8.72-117.57l-5,12.12c-13.21-54-65.41-61.67-65.41-61.67A27.06,27.06,0,0,1,81.26,38C66.4,13.21.85,0,.85,0-4.68,45.15,18.49,78.19,18.49,78.19H.87c-1.1,37.44,41.29,71,41.29,71l-17.62-2.75s5,12.11,35.79,38.54c26.72,22.9,76.58,9.83,89.42,5.94A515.15,515.15,0,0,0,112.11,113.34Z"
    fill="#207737" />
  </symbol>
  <symbol viewBox="0 0 209.68 263.75" id="icon-leaf7">
    <path d="M162.86,153.76c42.75-10,46.82-52.79,46.82-52.79C143.31,93.24,116,159.6,116,159.6S120.11,163.8,162.86,153.76Z" fill="#207737" />
    <path d="M156.14,183.37c-18.71,2.3-33,24.86-39.81,38,.11-1,.22-2.11.33-3.19a245.64,245.64,0,0,0-9.76-95.91c3.89-2.75,12.15-9.55,19.32-22,9.77-16.91-17.92-58-24.83-69.4S104.63,0,104.63,0,79.39,29.31,61.88,85.09c-15.58,49.64,30.44,41.56,40.75,39.18l.7,25.15C86.69,136.3,50.48,118.15,0,150.64c0,0,41.94,36.64,74.91,29.32,14.06-3.12,23.15-7.36,29-11.19l1.57,56.16c-5.78-8.3-18.38-22.36-36.85-21-26.06,1.9-64.05,39.35-64.05,39.35s42.61,13,67,5.7c17.23-5.17,28.78-12.09,34.09-15.72l.75,26.66c-.6,2-1,3-1,3.06l2.17.78c.05-.14,4.19-11.79,7.17-30.71,5.57,3.8,19,11,38.64,9.21,26.33-2.44,51.3-53.2,51.3-53.2A107.34,107.34,0,0,0,156.14,183.37Z"
    fill="#207737" />
  </symbol>
  <symbol viewBox="0 0 170.45 212.14" id="icon-leaf8">
    <path d="M156.64,0C134,22.67,107.3,18,46.64,53.33S14,168.67,14,168.67c.21,1.11.48,2.16.77,3.18-1.41,2.84-2.74,5.6-4,8.26C5.91,190.49,2.33,199.39,0,205.84l20,6.31c1.53-5.88,4-14.35,7.62-24.34C50.85,200.23,94,184.67,94,184.67,214.3,142.83,156.64,0,156.64,0Z"
    fill="#207737" />
  </symbol>
  <symbol viewBox="0 0 269.86 196.96" id="icon-leaf9">
    <path d="M93.49.06C-.31,2-8.24,126.89,5,146c6.57,9.52,18.35,9.58,28.55,7.22C24.24,177.59,19,197,19,197H46.16S45.09,181.09,50,157.81c2,10.49,11.74,21.27,11.74,21.27C114.43,207.73,178,102.45,186.63,85.94s83.23-40.29,83.23-40.29C184,45,187.29-1.92,93.49.06Z"
    fill="#207737" />
  </symbol>
  <symbol viewBox="0 0 473.06 616.32" id="icon-tree1">
    <title id="svgtitle">Website Creation</title>
    <path d="M267.39,26.4c-17-35.2-44.76-35.21-61.74,0L8.64,429.95C-8.28,465.21.44,495.66,28,497.61l417-.44c27.58-1.71,36.32-32,19.42-67.26Z" fill="#207737" />
    <path d="M318.94,392c-15.93,18.74-37.32,33.82-50.59,46.68-2.28-22.53-1.29-152.45-26.74-152.45-24.05,0-23.74,92.24-28.7,110.89-13.3-9.8-34-28.4-58.8-57.8,13.3,45.54,51.5,94,58.8,113.56V596c0,24.93,12.41,19.86,27.72,19.86S268.35,621,268.35,596V489.94S319.6,403.78,318.94,392Z"
    fill="#352926" />
  </symbol>
  <symbol viewBox="0 0 600 631.09" id="icon-tree10">
    <path d="M247.31,553.12c-68,6.8-224-78.16-228-139.33,20-6.8,48,0,72,3.4-28-27.19-64-54.37-84-85-20-37.38,4-30.58,36-17,4-44.18-44-125.74-4-166.52,20,13.59,28,37.38,40,54.37,32-47.58,6.07-142.31,50.07-183.09,16,17,33.93,60.75,45.93,81.14C197.38,55,229.38,23.79,273.38,0c24,23.79,17.93,63.76,29.93,94.35C315.38,59,351.38,40,371.38,23c16,23.79,5,53.4,24,78,5.25,6.79,35.93,13.74,67.93-3.25,36-17,50.46-4.73,58.46,29.25,8,37.38-18.46,65.9-22.46,106.68C527.31,243.87,568,205.41,600,219c-4,20.39-48.69,41.87-48.69,58.86-4,23.79,29.88,24.95,45.88,38.54-16,23.79-41.88,32.82-57.88,56.61,20,6.8,36,0,56,3.4-16,74.76-152,125.74-224,152.92C323.31,549.72,303.78,556.71,247.31,553.12Z"
    fill="#207737" />
    <path d="M257.21,572.95c8.88-31.84-10.37-92.75-35.54-116.29-11.84-12.46-86.24-31.5-66.63-34.61,35.12-5.56,80,20.77,91.8,16.61,35.54-23.54-17.77-149.51-31.09-175.82-7.4-12.46-53.3-101.08-31.09-101.06,17.84,0,16.81,73.51,68.11,105.21,16.29-5.54,51-49.39,48.86-34.61-1.12,7.63-28.13,36-32.58,44.3-8.88,18,1.48,90,16.29,106.6,32.58,37.38,86.1-54.93,105.13-56.76,23.95-2.3-25.32,41.17-45.49,62.32-25.24,26.46-65.56,60.89-58.15,99.65,10.37,58.14,74.45,3.54,100.69-4.15,19.72,0,5.82,5.15-25.27,24.53-28.09,17.51-66.53,36.38-63.57,71,1.48,29.07,57.87,55.06,9,46.76-13.32-2.77-40.1-12.15-57.87-9.38-13.33,2.77-25.17,11.08-37,13.84C206.86,611.71,246.84,589.56,257.21,572.95Z"
    fill="#352926" />
  </symbol>
  <symbol viewBox="0 0 687.94 637.33" id="icon-tree11">
    <title id="svgtitle">Site Visibility</title>
    <path d="M327.4,562.07c-111,3-246-51-306-150-30-45-33-114,21-144,39-21,96-15,135,0,27,12,63,36,78,60h0c-81-84-135-186-42-282,30-33,90-69,126-27,27,27,24,84,18,120h0c30-87,171-39,213,12,72,84-33,153-111,177,102,9.51,216-32.83,228,66.18C702.44,520.24,372.4,562.07,327.4,562.07Z"
    fill="#207737" />
    <path d="M304.2,523.26c-2.11-63.91-81.41-139.55-138-160.77-23.67-13.33,7.85-13.62,17.16-11.25,29.49,7.5,75.6,52.71,93.09,62.64,3.54-6.53-12.26-54.48-5.83-58.73,11.5-7.61,14.07,31.08,19.51,45.78,5,13.54,18.54,36.65,30,37.46,11-40.48,10.28-110.91,2.21-165.26-5.68-38.24-14.85-76-33.86-111.07-4.82-7.43,10.17-1.31,13.61,3,16.79,21,20.91,69.21,29.54,86.44,3.54-9.79,42-56.82,45.13-51.41,3,5.16-35.55,48.41-37.16,61.68-3.51,29,.91,79.07,8.42,108.44,14.35-57.89,93.31-166.8,122.55-219.07,6.24,5.47,13,13.29,7.84,19.94-22.27,28.41-69,103.8-76.86,123.69,15.93-9.79,44.25-21.22,61.94-27.75,16.77-4.24-8.24,7.82-17.25,13.32-15.37,9.38-36.46,19.78-44.85,24.49-22.5,12.6-23.72,43.29-31.7,66.65-14,40.95-24.78,84.87-23,127.31,15.93-6.53,28.32-24.48,40.71-37.54,11.21-10.2,14.93,5.73,3,16-17.61,15.19-28.62,47-31.31,65.58-3.54,27.75,4.42,58.76,4.42,86.5-23,9.79-51.19,10.87-73.45,1.63C300.66,598.34,304.2,557.53,304.2,523.26Z"
    fill="#352926" />
  </symbol>
  <symbol viewBox="0 0 532.38 645.64" id="icon-tree12">
    <title id="svgtitle">Website Reviews</title>
    <ellipse cx="266.19" cy="287.59" rx="266.19" ry="287.59" fill="#207737" />
    <path d="M237.69,531.56c-2.11-63.91-81.41-139.55-138-160.77-23.67-13.33,7.85-13.62,17.16-11.25,29.49,7.5,75.6,52.71,93.09,62.64,3.54-6.53-12.26-54.48-5.83-58.73,11.5-7.61,14.07,31.08,19.51,45.78,5,13.54,18.54,36.65,30,37.46,11-40.48,10.28-110.91,2.21-165.26-5.68-38.24-14.85-76-33.86-111.07-4.82-7.43,10.17-1.31,13.61,3,16.79,21,20.91,69.21,29.54,86.44,3.54-9.79,42-56.82,45.13-51.41,3,5.16-35.55,48.41-37.16,61.68-3.51,29,.91,79.07,8.42,108.43,14.35-57.89,135.59-205.78,130.38-199.14-22.27,28.41-69,103.8-76.86,123.69,15.93-9.79,44.25-21.22,61.94-27.75,16.77-4.24-8.24,7.82-17.25,13.32-15.37,9.38-36.46,19.78-44.85,24.49-22.5,12.6-23.72,43.29-31.7,66.65-14,40.95-24.78,84.87-23,127.31,15.93-6.53,28.32-24.48,40.71-37.54,11.21-10.2,14.93,5.73,3,16-17.61,15.19-28.62,47-31.31,65.58C289,578.89,297,609.91,297,637.65c-23,9.79-51.19,10.87-73.45,1.63C234.15,606.64,237.69,565.84,237.69,531.56Z"
    fill="#352926" />
  </symbol>
  <symbol viewBox="0 0 630.51 633.84" id="icon-tree13">
    <title id="svgtitle">Email Marketing</title>
    <path d="M294.91,48.18c-17.33-18.66-39.27-14.92-60-8-28.27,11.53-31.26,51.13-8.64,62.65-22.62-2.3-38-1.46-54.91,14.68-9.42,6.91-23.15,24.67-21.57,41.64,1.84,19.84,14,28.22,21.57,44.36,9.42,25.35-27.23,50.15-6.49,70.89,18.85,23.05,50.88,18.44,69.73-2.3,3.77,25.36,20.73,36.88,39.58,39.19,20.73,4.61,30.15-9.22,45.23-18.44,7.54,13.83,32.09,17.58,41.51,10.67,18.85-13.83,13.14-29.11,33.88-10.67,13.19,9.22,24.5,18.44,39.58,18.44,20.73,0,35.88-4.44,49-20.74,9.42,23,47.12,41.49,69.73,39.19,15.08-2.31,34.27-7.41,41.81-23.55,5.65-9.22,7.19-31.77-7.89-36.38,28.27,2.3,45.23-36.88,43.35-64.54-1.88-36.88-33.92-53-54.66-71.46,49-46.1-18.8-112.28-67.85-71.46-3-28.5-30.16-43.8-50.89-50.71-22.62-6.92-39.58,20.75-56.54,13.83C391,20.85,390.08-8.49,345.78,2.41,326.94,7,298.67,25.13,294.91,48.18Z"
    fill="#207737" />
    <path d="M224.68,281.91c14.2-3.35,31,0,45.18,5,19.36,8.38,12.91,28.49-2.58,36.87,15.49-1.68,31,6.7,42.59,18.43,6.45,5,37,37.27,13,53.93,10.67,16.67,10.19,36.56-4,51.64-12.91,16.76-34.85,13.41-47.76-1.68-2.58,18.44-14.2,26.81-27.11,28.49-14.2,3.35-20.65-6.7-31-13.41-5.16,10.06-18.07,6.71-24.52,1.68-12.91-10.05-12.91-15.08-27.11-1.68-9,6.71-16.78,13.41-27.1,13.41-14.2,0-21.94-10.05-33.56-15.08-6.45,16.76-29.71,21-45.2,19.29-10.33-1.68-43.33-15.33-25.79-34.37-19.36,1.67-31-26.81-29.69-46.92C1.39,370.73,23.33,359,37.53,345.59,4,312.08,62.05,258.45,84,293.65c12.91-10.05,20.65-31.84,34.85-36.87,15.49-5,27.1,15.08,38.72,10.05,6.45-3.35,10.33-13.41,19.36-15.08,5.16-1.68,12.91-3.35,18.07-1.68C207.9,253.42,222.1,265.16,224.68,281.91Z"
    fill="#207737" />
    <path d="M464.12,405.76c7-1.55,15.35,0,22.39,2.32,9.59,3.87,6.4,13.16-1.28,17,7.67-.77,15.35,3.1,21.11,8.51,3.2,2.32,7.67,6.19,9.59,10.06,2.56,6.19.64,7.74-1.92,13.16-3.2,8.51,3.84,18.57-3.2,25.54-6.4,7.74-17.27,6.19-23.66-.77-1.28,8.51-7,12.38-13.43,13.16-7,1.55-10.23-3.1-15.35-6.19-2.56,4.64-9,3.1-12.15.77-6.4-4.64-6.4-7-13.43-.77-4.48,3.1-8.31,6.19-13.43,6.19-7,0-10.87-4.64-16.63-7-3.2,7.74-16,13.93-23.66,13.16a15.84,15.84,0,0,1-12.15-9.29c-1.92-3.1-4.48-9.29.64-10.84-9.59.78-15.35-12.38-14.71-21.67.64-12.38,11.51-17.8,18.55-24-16.63-15.48,12.15-40.24,23-24,6.4-4.64,10.23-14.71,17.27-17,7.68-2.32,13.43,7,19.19,4.64,3.2-1.55,5.12-6.19,9.59-7,2.56-.78,6.4-1.55,9-.78C455.81,392.61,462.85,398,464.12,405.76Z"
    fill="#207737" />
    <path d="M318,519.76C315.92,455.85,236.61,380.22,180,359c-23.67-13.33,7.85-13.62,17.16-11.25,29.49,7.5,75.6,52.71,93.09,62.64,3.54-6.53-12.26-54.48-5.83-58.73,11.5-7.61,14.07,31.08,19.51,45.78,5,13.54,18.54,36.65,30,37.46,11-40.48,10.28-110.91,2.21-165.26-5.68-38.24-14.85-76-33.86-111.07-4.82-7.43,10.17-1.3,13.61,3,16.79,21,20.91,69.21,29.54,86.45,3.54-9.79,42-56.82,45.13-51.41,3,5.16-35.55,48.41-37.16,61.67-3.51,29,.91,79.07,8.42,108.44,14.35-57.89,93.31-166.8,122.54-219.07,6.24,5.47-61.12,123.74-69,143.63,15.93-9.79,44.25-21.22,61.94-27.75,16.77-4.24-8.24,7.82-17.25,13.32-15.37,9.38-36.45,19.79-44.85,24.49-22.5,12.6-23.72,43.29-31.7,66.65-14,40.95-24.78,84.87-23,127.31,15.93-6.53,28.32-24.48,40.71-37.54,11.21-10.2,14.93,5.73,3,16-17.61,15.19-28.62,47-31.31,65.58-3.54,27.75,4.42,58.76,4.42,86.5-23,9.79-51.19,10.87-73.45,1.63C314.49,594.84,318,554,318,519.76Z"
    fill="#352926" />
  </symbol>
  <symbol viewBox="0 0 567.31 606.52" id="icon-tree14">
    <title id="svgtitle">Branding and Graphic Design</title>
    <path d="M443.08,288.84c45.12-28.57,74.7-76.34,74.7-130.45C517.78,70.91,440.51,0,345.19,0S172.59,70.91,172.59,158.39c0,.57,0,1.14,0,1.71h0C77.27,160.1,0,231,0,318.48S77.27,476.87,172.59,476.87c43.7,0,83.6-14.91,114-39.48,13.93,55.33,70.74,96.76,138.72,96.76,78.42,0,142-55.13,142-123.14C567.31,348.23,513.12,296.42,443.08,288.84Z"
    fill="#207737" />
    <path d="M277.8,492.44c-2.11-63.91-81.41-139.55-138-160.77-23.67-13.33,7.85-13.62,17.16-11.25,29.49,7.5,75.6,52.71,93.09,62.64,3.54-6.53-12.26-54.48-5.83-58.73,11.5-7.61,14.07,31.08,19.51,45.78,5,13.54,18.54,36.65,30,37.46,11-40.48,10.28-110.91,2.21-165.26-5.68-38.24-14.85-76-33.86-111.07-4.82-7.43,10.17-1.31,13.61,3,16.79,21,20.91,69.21,29.54,86.44,3.54-9.79,42-56.82,45.13-51.41,3,5.16-35.55,48.41-37.16,61.68-3.51,29,.91,79.07,8.42,108.43,14.35-57.89,93.31-166.8,122.54-219.07,6.24,5.47,13,13.29,7.84,19.94-22.27,28.41-69,103.8-76.86,123.69,15.93-9.79,44.25-21.22,61.94-27.75,16.77-4.24-8.24,7.82-17.25,13.32C404.46,258.89,383.38,269.29,375,274c-22.5,12.6-23.72,43.29-31.7,66.65-14,40.95-24.78,84.87-23,127.31,15.93-6.53,28.32-24.48,40.71-37.54,11.21-10.2,14.93,5.73,3,16-17.61,15.19-28.62,47-31.31,65.58-3.54,27.75,4.42,58.76,4.42,86.5-23,9.79-51.19,10.87-73.45,1.63C274.26,567.52,277.8,526.71,277.8,492.44Z"
    fill="#352926" />
  </symbol>
  <symbol viewBox="0 0 576.49 644.36" id="icon-tree15">
    <title id="svgtitle">Support and Maintenance</title>
    <path d="M136.84,568.77c-40-10.45-98-29.86-122-73.86-16.38-30-32-91.06,28-94.1-28.84-31.54-44-78.32-28-113.14,12-27.86,42-46.76,104-46.79-72-34-48-121.86-32-153.2,48-80.08,156-104.46,248-76.6,80,24.37,132,59.68,176,125.83S525.92,271.07,453.92,278c64.93,9.64,103.35,14.78,120.93,84.88,9.5,37.9-23.44,98.94-68,90.36,52,57.64-12,98.68-36,105.64-44,7-111.17,27.43-158.16-8C265.33,588.91,188.84,586.18,136.84,568.77Z"
    fill="#207737" />
    <path d="M255,531.5c-2.22-63.23-85.63-138.06-145.19-159.05-24.89-13.19,8.26-13.47,18-11.13,31,7.42,79.51,52.15,97.91,62,3.72-6.46-12.89-53.9-6.13-58.11,12.1-7.53,14.79,30.75,20.52,45.29,5.28,13.39,19.5,36.26,31.6,37.06,11.61-40.05,10.81-109.72,2.32-163.49-6-37.83-15.62-75.21-35.61-109.89,30.39,20.76,36.31,71.44,45.38,88.49,3.72-9.69,44.2-56.21,47.47-50.86,3.12,5.11-37.39,47.89-39.08,61-3.69,28.65,1,78.22,8.85,107.28C316.16,322.8,392.4,215.47,430,163.34c-45.88,79.15-80.91,122.42-72.6,142.1-16.75-9.69,46.54-21,65.15-27.45,17.64-4.19-8.67,7.73-18.14,13.17-16.17,9.28-38.34,19.57-47.17,24.22-23.66,12.46-24.94,42.83-33.34,65.94-14.72,40.51-26.06,84-24.2,125.95,16.75-6.46,29.78-24.22,42.81-37.14,11.8-10.1,15.7,5.67,3.15,15.86-18.52,15-30.1,46.45-32.93,64.88-3.72,27.45,4.65,58.13,4.65,85.58-24.2,9.69-53.84,10.75-77.25,1.61C251.26,605.78,255,565.41,255,531.5Z"
    fill="#352926" />
  </symbol>
  <symbol viewBox="0 0 539.61 642.57" id="icon-tree2">
    <path d="M539.61,370.68c-58,9.7-115.95,1.94-158.31-34.93,62.43-7.76,109.26-79.57,111.49-132-49.06,7.76-127.1-1.94-133.79-36.87C383.52,161.08,428.12,132,432.58,97,347.85,91.21,287.64,50.46,269.8,0,252,50.46,191.76,91.21,107,97c4.46,34.93,49.06,64,73.58,69.87-6.69,34.93-84.73,44.64-133.79,36.87,2.23,52.4,49.06,124.21,111.49,132C115.95,372.62,58,380.38,0,370.68,131.18,583.57,409.18,563.57,539.61,370.68Z"
    fill="#207737" />
    <path d="M352.21,418.22C336.28,437,314.89,452,301.63,464.9c-2.28-22.53-1.29-152.45-26.74-152.45-24.05,0-23.74,92.24-28.7,110.89-13.3-9.8-34-28.4-58.8-57.8,13.3,45.54,51.5,94,58.8,113.56v143.2c0,24.93,12.41,19.86,27.72,19.86s27.72,5.07,27.72-19.86V516.19S352.87,430,352.21,418.22Z"
    fill="#352926" />
  </symbol>
  <symbol viewBox="0 0 513.79 663.76" id="icon-tree3">
    <path d="M513.79,529c.47-36.6-67.64-90.09-121.71-123.86,36.46,1.56,114.84-7.79,73.17-54.68-22.84-25.7-57-52.52-99-93.35,43.54.12,65.92-24.43,38.14-51.3-40.23-38.9-79.73-62.89-107.59-82.71h0c57.29,1.56,88.55-14,27.78-67C312.45,45.19,277.33,13.86,256.9,0c-20.43,13.86-55.56,45.19-67.71,56.1-60.77,53-29.52,68.57,27.78,67h0c-27.86,19.82-67.37,43.81-107.59,82.71-27.78,26.86-5.39,51.42,38.14,51.3-41.92,40.83-76.13,67.65-99,93.35-41.67,46.89,36.7,56.24,73.17,54.68C67.65,438.93-.46,492.41,0,529c.36,28.44,125.79,60.65,256.89,60C382.21,588.41,513.44,556.19,513.79,529Z"
    fill="#207737" />
    <path d="M338.22,439.4c-15.93,18.74-37.32,33.82-50.59,46.68-2.28-22.53-1.29-152.45-26.74-152.45-24.05,0-23.74,92.24-28.7,110.89-13.3-9.8-34-28.4-58.8-57.8,13.3,45.54,51.5,94,58.8,113.56v143.2c0,24.93,12.41,19.86,27.72,19.86s27.72,5.07,27.72-19.86V537.37S338.88,451.22,338.22,439.4Z"
    fill="#352926" />
  </symbol>
  <symbol viewBox="0 0 522.4 606.52" id="icon-tree4">
    <path d="M522.4,287.59c0-32.62-13-62-33.71-82.6a179.29,179.29,0,0,0,1.92-26.18C490.61,80.05,410.14,0,310.87,0,222.6,0,149.19,63.31,134,146.78,57.65,161.33,0,227.05,0,305.95c0,89.57,74.29,162.17,165.94,162.17a170,170,0,0,0,39.58-4.65c23.8,42,71.45,70.75,126.36,70.75,78.71,0,142.51-59,142.51-131.68a122.84,122.84,0,0,0-1.54-19.36C502.61,363.21,522.4,327.87,522.4,287.59Z"
    fill="#207737" />
    <path d="M357.29,171.78c-4.35-13.59-38.43,21.11-50-8.54S260.12,86.53,234,65.52c31.91,32.12,71.07,90.19,69.62,133.44-1.32,33.69-15.16,60.79-39.46,84.94a109.7,109.7,0,0,0-3.77-19.59C253.81,241.14,229.09,235,206,229.56c-16.48-3.86-16.48-3.86-19.78-17.76-2.47-10,3.3-47.79-12.36-48.56-5.77,0,2.47,44.7,4.94,75.59,23.9,1.54,56,.77,67.57,30.89,5.77,15.44-4.95,51-7.42,67.18-3.3,18.53-3.3,40.15-13.18,57.91-9.89-2.32-35.43-5.41-37.9-14.67C184.6,367,206.84,367,211,357c4.94-12.35-5.77-72.58-19.78-67.95a163.85,163.85,0,0,1,6.59,44.78c0,9.27-14.83,24.71-24.72,28.57-13.31-20.32-45.32-54.05-59.33-44.79,17.19,11.79,37.08,31.66,46.14,54.82,9.06,22.39,11.54,34,35.43,44.79,14,6.18,31.31,12.36,37.9,27,9.89,21.62,9.89,47.88,0,72.59-4.12,14.67-31.31,73.74-35.43,86.1,23.9,7.72,67.57,1.16,93.11-1.93.82-10.81-4.12-20.08-5.77-30.89-4.94-34.75-13.18-88,9.06-118.91,7.42-10,51.09-30.12,27.19-36.29-14-3.86-52.74,42.47-62.62,27-2.47-4.63,5.77-26.25,8.24-30.12,6.59-11.58,16.48-13.13,27.19-20.08,20.6-13.13,20.6-33.2,26.37-54.05.82-4.63,11.54-30.12-2.47-27.8-5.77.77-10.71,27.8-12.36,31.66-4.12,12.36-4.94,22.39-16.48,28.57-9.89,5.41-23.9,6.18-34.61,10.81l-.82-.77c-9.89-6.95,1.8-37.24,8.24-62.54.29-1.14.55-2.3.79-3.47,17.18-24.84,40.62-50.26,46.58-64.5,7.25-16.06-1.45-13.59,2.9-29.65C318.13,200.2,319.58,185.37,357.29,171.78Z"
    fill="#352926" />
  </symbol>
  <symbol viewBox="0 0 424.01 678.11" id="icon-tree5">
    <path d="M368.83,300A191.15,191.15,0,0,0,370,278.45C370,223,346.32,173.72,309.4,142,306.65,62.87,264.1,0,212,0s-94.65,62.87-97.4,142C77.69,173.72,54,223,54,278.45A191.33,191.33,0,0,0,55.18,300C20.9,330.73,0,371.63,0,416.52,0,512.2,94.92,589.76,212,589.76S424,512.2,424,416.52C424,371.63,403.11,330.73,368.83,300Z"
    fill="#207737" />
    <path d="M308.1,243.37c-4.35-13.59-38.43,21.11-50-8.54s-47.14-76.71-73.24-97.71c31.91,32.12,71.07,90.19,69.62,133.44-1.32,33.69-15.16,60.79-39.46,84.94a109.69,109.69,0,0,0-3.77-19.59c-6.59-23.17-31.31-29.34-54.38-34.75-16.48-3.86-16.48-3.86-19.78-17.76-2.47-10,3.3-47.79-12.36-48.56-5.77,0,2.47,44.7,4.94,75.59,23.9,1.54,56,.77,67.57,30.88,5.77,15.44-4.95,51-7.42,67.18-3.3,18.53-3.3,40.15-13.18,57.91-9.89-2.32-35.43-5.41-37.9-14.67-3.3-13.13,19-13.13,23.07-23.17C166.71,416.2,156,356,142,360.61a163.85,163.85,0,0,1,6.59,44.78c0,9.27-14.83,24.71-24.72,28.57-13.31-20.32-45.32-54.05-59.33-44.79C81.72,401,101.62,420.84,110.68,444c9.06,22.39,11.54,34,35.43,44.79,14,6.18,31.31,12.36,37.9,27,9.89,21.62,9.89,47.88,0,72.59-4.12,14.67-31.31,73.74-35.43,86.1,23.9,7.72,67.57,1.16,93.11-1.93.82-10.81-4.12-20.08-5.77-30.89-4.94-34.75-13.18-88,9.06-118.91,7.42-10,51.09-30.12,27.19-36.29-14-3.86-52.74,42.47-62.62,27-2.47-4.63,5.77-26.25,8.24-30.12,6.59-11.58,16.48-13.13,27.19-20.08,20.6-13.13,20.6-33.2,26.37-54.05.82-4.63,11.54-30.12-2.47-27.8-5.77.77-10.71,27.8-12.36,31.66-4.12,12.36-4.94,22.39-16.48,28.57-9.89,5.41-23.9,6.18-34.61,10.81l-.82-.77c-9.89-6.95,1.8-37.24,8.24-62.54.29-1.14.55-2.3.79-3.47,17.18-24.84,40.62-50.26,46.58-64.5,7.25-16.06-1.45-13.59,2.9-29.65C268.94,271.79,270.39,257,308.1,243.37Z"
    fill="#352926" />
  </symbol>
  <symbol viewBox="0 0 565.23 626.43" id="icon-tree6">
    <path d="M276.54,556.18c-58.82-12.25-108,6-165-21-45-21-96-54-108-105-15-48,51-63,87-78-48,3-96-57-90-102,3-60,78-78,123-96-63-12-21-72,9-99,33-30,78-42,120-51,96-18,213,24,267,105,36,51-6,84-42,117,39,9,75,33,75,78,0,42-39,57-75,66,39-6,81,30,87,66,6,42-30,72-60,93C441.55,568.18,348.54,571.18,276.54,556.18Z"
    fill="#207737" />
    <path d="M311.32,450.46c2.37-23.82,7.87-47.4,18.68-68.87,9.16-18.19,8.61-36.41,18.34-52.47,8.77-14.48,49.35-33.33,65.37-47.08-15.27,6.06-42.49,19.22-56.23,28.32C366.64,274,414.88,220.67,417,177,391.17,226.73,321.41,337,309.2,390c-6.48-27.27-12-88.77-4.39-113,3.05-12.12,41-60.56,31.3-54.56-13.88,8.55-35.88,38.65-38.93,47.74-9.16-19.7-17.26-76.37-38.93-82.6,15,24.79,25.64,75.12,30.23,129.78,3.6,42.86,3.48,88.39-1.22,126.36-9.92-.76-18.11-11.7-25.71-23.22s-8-40.85-17-54.08c-3.76-5.48,4.17,40.41,5,54.54-5.07-3.1-12.28-9.13-20.57-16,0,0-11.44-75.53-4.26-98.35C227.75,294.48,264,244.11,256,252c-14.56,14.49-35.88,38.65-38.93,47.74-9.16-19.7-17.55-75.49-38.93-82.6,27.38,54.36,35.87,114.49,35,174.91-9.84-6.6-43.47-17.56-58.71-18.84,48.85,19.7,143.51,82.6,119.08,149.29,0,4.77-.07,9.68-.22,14.68-8-5.22-44.9-36.54-61.7-52.73-.51,4.8,34.51,40,36.66,46-18.17-5.56-68.82-28.68-80.58-17.66,24,3.07,68.16,16.34,104.82,41.46-1.53,23.41-4.94,47.63-11.19,68.32,21.37,3,43.51,7.58,63.36-1.51,0-25.77-8-74.62-4.93-100.38,2.8-9.57,30.1-37.33,46.1-61.33-10.69,12.13-41.93,34.4-55.67,40.46-.37-9.52-.47-19.21-.15-29,15.15-20.17,53.64-49.76,83.15-64.84C372.66,408.93,311.67,447.18,311.32,450.46Z"
    fill="#352926" />
  </symbol>
  <symbol viewBox="0 0 352.73 628.26" id="icon-tree7">
    <ellipse cx="176.36" cy="293.48" rx="176.36" ry="293.48" fill="#207737" />
    <path d="M192,452.29c2.37-23.82,7.87-47.4,18.68-68.87C219.8,365.23,219.25,347,229,331c8.77-14.48,49.35-33.33,65.37-47.08-15.27,6.06-42.49,19.22-56.23,28.31,9.16-36.37,57.4-89.68,59.54-133.38-25.85,49.75-95.61,160-107.82,213.06-6.48-27.27-12-88.77-4.39-113,3.05-12.12,41-60.56,31.3-54.56-13.88,8.55-35.88,38.65-38.93,47.74-9.16-19.7-17.26-76.37-38.93-82.6,15,24.79,25.64,75.12,30.23,129.79,3.6,42.86,3.48,88.39-1.22,126.36-9.92-.76-18.11-11.7-25.71-23.22s-8-40.85-17-54.07c-3.76-5.48,4.17,40.4,5,54.54-5.07-3.1-12.28-9.12-20.57-16,0,0-11.44-75.53-4.26-98.35,3.06-12.12,39.27-62.5,31.3-54.56-14.56,14.49-35.88,38.65-38.93,47.74-9.16-19.7-17.55-75.49-38.93-82.6,27.38,54.36,35.87,114.49,35,174.91-9.84-6.6-43.47-17.56-58.71-18.84,48.85,19.7,143.51,82.6,119.08,149.29,0,4.77-.07,9.68-.22,14.68-8-5.21-44.9-36.54-61.7-52.73-.51,4.8,48.26,60.18,60.9,69.76-1.53,23.41-4.94,47.63-11.19,68.32,21.37,3,43.51,7.58,63.36-1.51,0-25.77-8-74.62-4.93-100.38,2.8-9.57,30.1-37.33,46.1-61.33-10.69,12.13-41.93,34.4-55.67,40.46-.37-9.52-.47-19.21-.15-29,15.15-20.17,53.64-49.76,83.15-64.84C253.3,410.76,192.31,449,192,452.29Z"
    fill="#352926" />
  </symbol>
  <symbol viewBox="0 0 559.43 657.71" id="icon-tree8">
    <path d="M9.31,523.71c-31.82-51,26.07-181,52.1-229C99,219.74,218,6.23,278.72.23c52.07-6,116.65,106.21,142.68,142.22,57.85,87,117.24,162.24,134.6,270.25,10.06,63.94,2.21,135.75-82.6,153.67C398.27,582.25,55.59,601.72,9.31,523.71Z" fill="#207737"
    />
    <path d="M514.56,384.56c-48.64,23.83-148.51,63.11-207.31,97.18,2.37-23.82,7.87-47.4,18.68-68.87,9.16-18.19,8.61-36.41,18.34-52.47,8.77-14.48,49.35-33.33,65.37-47.08-15.27,6.06-42.49,19.22-56.23,28.31,9.16-36.37,57.4-89.68,59.54-133.38-25.85,49.75-95.61,160-107.82,213.06-6.48-27.27-12-88.77-4.39-113,3.05-12.12,41-60.56,31.3-54.56-13.88,8.55-35.88,38.65-38.93,47.74-9.16-19.7-17.26-76.36-38.93-82.6,15,24.79,25.64,75.12,30.23,129.78C288,391.51,287.89,437,283.19,475c-9.92-.76-18.11-11.7-25.71-23.22s-8-40.85-17-54.07c-3.76-5.48,4.17,40.4,5,54.54-5.08-3.1-12.28-9.12-20.57-16,0,0-11.44-75.53-4.26-98.35,3.06-12.13,39.27-62.5,31.3-54.56C237.38,297.81,216.06,322,213,331.06c-9.16-19.7-17.55-75.49-38.93-82.6,27.38,54.36,35.87,114.49,35,174.91-9.84-6.6-43.47-17.56-58.71-18.84,48.86,19.7,143.51,82.6,119.08,149.29,0,4.77-.07,9.68-.22,14.68-8-5.21-18.74-14.73-26.23-20.12-11.24-8.09-34.57-41.2-35.47-32.61-.51,4.8,34.51,40,36.66,46C226,556.17,175.36,533,163.61,544.07c24,3.07,68.16,16.34,104.82,41.46-1.53,23.41-4.94,47.63-11.19,68.32,21.37,3,43.51,7.58,63.36-1.51,0-25.77-6.87-54.56-3.82-80.33,3.05-22.74,38.17-59.11,24.43-75.78-10.69,12.13-21.37,28.8-35.11,34.86-.37-9.52-.47-19.21-.15-29,16.13-11.3,31.28-27,50.34-31.08,18.74-4,54.48,6.37,74.7-2.29-16.79-2.3-44.3-5.26-62.07-4.39C402.91,439.26,482.33,418.24,514.56,384.56Z"
    fill="#352926" />
  </symbol>
  <symbol viewBox="0 0 632.91 665.39" id="icon-tree9">
    <path d="M280.36,49.82c-21-5.83-51-8.74-72-5.83-42,2.91-111,52.45-66,90.34-53.69-13-166.19,51.14-83.69,89-63,2.91-84.33,126.63-18.32,129.54-27,29.14-52.19,107.92,19.82,105-114,58.28,43.19,168.91,70.19,119.37,3,20.4,27,35,48,37.88,30,5.83,42-11.65,57-32.05,21,17.48,36,29.14,66,29.14s42-23.31,66-11.66c36,11.66,45,20.4,84,11.66,36-11.66,48-23.31,63-55.37,33,17.48,82.64,4.46,100.65-24.68,15-20.4,17.88-65.55-16.64-74.4,27-26.23,39-46.62,33-84.51-6-35-36-40.8-63-58.28,21-17.48,39.14-36.29,30.14-68.35-6-23.31-27.14-30.73-48.14-39.47,15-20.4,36-32.05,18-61.2-12-17.48-63-37.88-81-23.31,0-26.23,6-43.71-15-58.28-18-14.57-48-17.48-69-8.74,15-40.8-30-52.45-66-55.37C304.36-2.64,286.36,17.76,280.36,49.82Z"
    fill="#207737" />
    <path d="M537.8,385.56C487.48,410,384.17,450.21,323.35,485.11c2.46-24.41,8.14-48.56,19.32-70.56,9.48-18.63,8.91-37.3,19-53.75,9.08-14.83,51-34.14,67.63-48.23-15.79,6.21-44,19.69-58.17,29,9.48-37.27,59.38-91.87,61.59-136.64-26.74,51-98.9,163.93-111.54,218.27-6.7-27.94-12.44-90.95-4.54-115.79,3.16-12.42,42.44-62,32.38-55.9-14.36,8.76-37.11,39.59-40.27,48.91-9.48-20.19-17.85-78.23-40.27-84.63,15.49,25.4,26.52,77,31.27,133,3.73,43.91,3.6,90.55-1.26,129.45-10.27-.78-18.74-12-26.6-23.79s-8.24-41.85-17.63-55.4c-3.89-5.62,4.31,41.39,5.2,55.88-5.25-3.18-12.7-9.35-21.28-16.41,0,0-11.84-77.37-4.41-100.76,3.16-12.42,40.62-64,32.38-55.9-15.06,14.85-37.11,39.59-40.27,48.91-9.48-20.19-18.15-77.34-40.27-84.62,28.32,55.69,37.1,117.29,36.2,179.19-10.18-6.76-45-18-60.73-19.3C211.59,426.2,309.51,490.64,284.24,559c0,4.89-.07,9.92-.23,15-8.3-5.34-19.38-15.09-27.13-20.61-11.63-8.29-35.76-42.21-36.69-33.41-.52,4.92,35.7,40.93,37.92,47.09-18.79-5.7-71.19-29.38-83.35-18.1,24.85,3.15,70.51,16.74,108.43,42.48-1.59,24-5.11,48.8-11.58,70,22.11,3.11,45,7.76,65.54-1.55,0-26.4-7.11-55.9-3.95-82.29C336.35,554.3,372.68,517,358.47,500c-11.06,12.42-22.11,29.5-36.33,35.71-.38-9.75-.48-19.68-.15-29.66,16.69-11.58,32.36-27.63,52.07-31.84,19.39-4.14,56.35,6.53,77.27-2.34-17.36-2.36-45.83-5.38-64.21-4.49C422.29,441.6,504.45,420.06,537.8,385.56Z"
    fill="#352926" />
  </symbol>
</svg>
