<svg xmlns="https://www.w3.org/2000/svg" xml:space="preserve" fill-rule="evenodd" stroke-linejoin="round" stroke-miterlimit="2" clip-rule="evenodd" viewBox="0 0 800 800"><path fill="#425366" fill-rule="nonzero" d="M800 126.934 508.998 0H291.003L0 126.934v109.178h261.398L111.316 747.469H1.625v52.533h796.752v-52.533H688.686L538.604 236.112h261.398V126.934H800ZM322.749 52.533h154.504v131.046H322.749V52.533Zm-6.601 183.579h167.706l25.445 86.693-109.298 119.054-109.299-119.054 25.446-86.693ZM52.533 183.579v-22.245l217.683-94.953v117.198H52.533Zm220.893 198.088 90.917 99.032L187.976 672.81l85.45-291.143Zm-82.673 365.8L400.001 519.54l209.248 227.927H190.753Zm421.271-74.657L435.659 480.7l90.915-99.031 85.45 291.141Zm135.445-489.231H529.786V66.381l217.683 94.953v22.245Z"/><path fill="#5a7b35" d="M2.47 747.6h794.399v52.488H2.47z"/></svg>