<svg xmlns="http://www.w3.org/2000/svg" id="Layer_1" viewBox="0 0 168 96"><defs><style>.cls-1{fill:#5a7b35;stroke-width:0}</style></defs><path d="M115.923 54.161c-.491-.462-1.221-.693-2.188-.693h-2.223v9.064h2.332c.631 0 1.155-.099 1.573-.297.418-.198.733-.51.946-.935.212-.425.326-.982.341-1.672.029-.425.048-.807.055-1.144a21.34 21.34 0 0 0-.055-2.134c-.029-.997-.29-1.727-.781-2.189ZM58.871 54.513a2.191 2.191 0 0 0-.935-.957c-.396-.205-.851-.308-1.364-.308-.499 0-.946.103-1.342.308-.396.206-.712.524-.946.957s-.367.994-.396 1.683c-.016.616-.022 1.21-.022 1.782s.007 1.181.022 1.826c.044 1.027.308 1.775.792 2.244.483.469 1.114.704 1.892.704s1.411-.234 1.903-.704c.491-.469.751-1.217.78-2.244.029-.645.044-1.254.044-1.826s-.015-1.166-.044-1.782c-.029-.689-.157-1.25-.385-1.683Z" class="cls-1"/><path d="M155.885 58.882c-1.39-.9-3.25-.49-4.14.9l-14.63 22.76v-17.26c0-30.51-24.73-55.23-55.23-55.23h-71.15v21.87c0 30.51 24.72 55.23 55.23 55.23h67.16l-8.78-9.42a3.001 3.001 0 0 1 .14-4.24 3.002 3.002 0 0 1 4.24.15l12.578 13.475c.003-.006.009-.009.012-.015l15.47-24.08c.9-1.39.5-3.25-.9-4.14ZM83.749 30.85c0-.161.051-.293.154-.396a.534.534 0 0 1 .396-.154h10.274c.161 0 .293.051.396.154a.536.536 0 0 1 .154.396v2.068a.537.537 0 0 1-.154.396.534.534 0 0 1-.396.154h-7.019v2.97h6.534c.161 0 .293.055.396.165.103.11.153.246.153.407v1.914a.55.55 0 0 1-.153.385.52.52 0 0 1-.396.165h-6.534v3.058h7.194a.54.54 0 0 1 .396.154.536.536 0 0 1 .154.396v2.068c0 .161-.052.293-.154.396s-.234.154-.396.154h-10.45a.536.536 0 0 1-.396-.154.532.532 0 0 1-.154-.396v-14.3Zm-13.658 0c0-.161.051-.293.154-.396a.534.534 0 0 1 .396-.154h10.274c.161 0 .293.051.396.154a.536.536 0 0 1 .154.396v2.068a.537.537 0 0 1-.154.396.534.534 0 0 1-.396.154h-7.019v2.97h6.534c.161 0 .293.055.396.165.103.11.153.246.153.407v1.914a.55.55 0 0 1-.153.385.52.52 0 0 1-.396.165h-6.534v3.058h7.194a.54.54 0 0 1 .396.154.536.536 0 0 1 .154.396v2.068c0 .161-.052.293-.154.396s-.234.154-.396.154H70.64a.536.536 0 0 1-.396-.154.532.532 0 0 1-.154-.396v-14.3Zm-22.568 34.3a.539.539 0 0 1-.153.396.537.537 0 0 1-.396.154h-2.838a.534.534 0 0 1-.396-.154.532.532 0 0 1-.154-.396v-5.478h-5.435v5.478c0 .161-.051.293-.153.396s-.235.154-.396.154h-2.838a.536.536 0 0 1-.396-.154.532.532 0 0 1-.154-.396v-14.3c0-.161.051-.293.154-.396a.534.534 0 0 1 .396-.154h2.838c.161 0 .294.051.396.154a.535.535 0 0 1 .153.396v5.302h5.435V50.85c0-.161.051-.293.154-.396a.533.533 0 0 1 .396-.154h2.838c.161 0 .293.051.396.154a.535.535 0 0 1 .153.396v14.3Zm-1.426-19.23c-1.394 0-2.593-.231-3.598-.693s-1.782-1.136-2.332-2.024c-.55-.887-.854-1.969-.913-3.245a93.921 93.921 0 0 1 0-4.048c.059-1.247.367-2.302.925-3.168.557-.865 1.342-1.525 2.354-1.98s2.2-.682 3.564-.682c1.1 0 2.075.136 2.926.407s1.565.634 2.145 1.089 1.02.954 1.32 1.496.458 1.078.473 1.606a.367.367 0 0 1-.121.33.485.485 0 0 1-.341.132h-3.212c-.161 0-.282-.025-.363-.077a.648.648 0 0 1-.209-.231 3.403 3.403 0 0 0-.45-.693c-.198-.242-.47-.451-.814-.627s-.796-.264-1.353-.264c-.837 0-1.493.22-1.97.66s-.736 1.144-.78 2.112a54.288 54.288 0 0 0 0 3.828c.044 1.027.314 1.768.813 2.222.498.455 1.158.682 1.98.682.557 0 1.052-.095 1.484-.286s.773-.488 1.023-.891c.249-.403.374-.92.374-1.551v-.418h-2.068a.554.554 0 0 1-.407-.165.557.557 0 0 1-.165-.407v-1.628c0-.161.056-.297.165-.407a.554.554 0 0 1 .407-.165h5.544c.161 0 .293.055.396.165.103.11.153.246.153.407v2.508c0 1.262-.285 2.34-.857 3.234s-1.383 1.58-2.432 2.057c-1.048.477-2.27.715-3.662.715Zm17.252 14.016c-.06 1.335-.367 2.446-.925 3.333-.558.888-1.334 1.551-2.332 1.991-.997.44-2.17.66-3.52.66s-2.522-.22-3.521-.66c-.997-.44-1.774-1.104-2.331-1.991-.558-.887-.866-1.998-.925-3.333a88.207 88.207 0 0 1 0-3.806c.059-1.32.37-2.431.936-3.333.564-.902 1.346-1.581 2.343-2.035s2.163-.682 3.498-.682c1.32 0 2.482.228 3.487.682 1.004.455 1.793 1.133 2.364 2.035.572.902.881 2.013.925 3.333a41.184 41.184 0 0 1 0 3.806Zm.86-14.445a1.65 1.65 0 0 1-.286-.385l-2.508-4.84h-2.267v4.884c0 .161-.051.293-.153.396s-.235.154-.396.154h-2.838a.536.536 0 0 1-.396-.154.532.532 0 0 1-.154-.396v-14.3c0-.161.051-.293.154-.396a.534.534 0 0 1 .396-.154h5.984c1.892 0 3.384.437 4.477 1.309s1.64 2.108 1.64 3.707c0 1.042-.254 1.921-.76 2.64a4.756 4.756 0 0 1-1.99 1.628l3.035 5.412a.549.549 0 0 1 .066.242.441.441 0 0 1-.143.319.465.465 0 0 1-.342.143h-2.903c-.279 0-.484-.069-.616-.209Zm13.152 18.196c-.564.726-1.346 1.28-2.343 1.661s-2.142.572-3.432.572c-1.467 0-2.685-.209-3.652-.627-.968-.418-1.701-.964-2.2-1.639-.498-.674-.763-1.394-.792-2.156 0-.117.048-.223.144-.319a.466.466 0 0 1 .341-.143h2.771c.206 0 .363.037.474.11.109.074.209.169.297.286.117.22.282.433.495.638.212.206.491.371.836.495s.773.187 1.287.187c.851 0 1.492-.132 1.925-.396.433-.264.649-.623.649-1.078 0-.323-.118-.59-.353-.803-.234-.212-.612-.403-1.133-.572s-1.214-.341-2.079-.517c-1.115-.234-2.064-.539-2.849-.913-.785-.374-1.383-.865-1.793-1.474-.411-.608-.616-1.367-.616-2.277 0-.895.253-1.694.759-2.398s1.214-1.254 2.123-1.65 1.987-.594 3.234-.594c1.012 0 1.902.132 2.673.396.77.264 1.419.616 1.946 1.056.528.44.928.906 1.199 1.397.271.492.414.972.43 1.441a.459.459 0 0 1-.133.319.427.427 0 0 1-.33.143h-2.903a.918.918 0 0 1-.418-.088.811.811 0 0 1-.309-.286c-.088-.322-.318-.605-.692-.847-.374-.242-.862-.363-1.463-.363-.646 0-1.148.114-1.508.341s-.539.576-.539 1.045c0 .293.1.55.298.77.197.22.527.411.989.572.462.162 1.097.33 1.903.506 1.335.25 2.412.561 3.234.935.821.374 1.422.858 1.804 1.452.381.594.572 1.338.572 2.233 0 .998-.283 1.859-.848 2.585ZM91.99 53.204a.549.549 0 0 1-.154.385.518.518 0 0 1-.396.165h-3.916V65.15a.539.539 0 0 1-.153.396.537.537 0 0 1-.396.154h-2.904c-.161 0-.293-.051-.396-.154s-.154-.235-.154-.396V53.754h-3.916a.544.544 0 0 1-.55-.55V50.85a.54.54 0 0 1 .154-.396.534.534 0 0 1 .396-.154h11.836c.161 0 .294.051.396.154a.536.536 0 0 1 .154.396v2.354Zm13.477 11.946c0 .161-.052.293-.154.396s-.234.154-.396.154h-10.45a.536.536 0 0 1-.396-.154.532.532 0 0 1-.154-.396v-14.3c0-.161.051-.293.154-.396a.534.534 0 0 1 .396-.154h10.274c.161 0 .293.051.396.154a.536.536 0 0 1 .154.396v2.068a.537.537 0 0 1-.154.396.534.534 0 0 1-.396.154h-7.019v2.97h6.534c.161 0 .293.055.396.165.103.11.153.246.153.407v1.914a.55.55 0 0 1-.153.385.52.52 0 0 1-.396.165h-6.534v3.058h7.194a.54.54 0 0 1 .396.154.536.536 0 0 1 .154.396v2.068Zm1.257-19.626a2.328 2.328 0 0 1-.209-.242l-5.368-8.14v8.008c0 .161-.052.293-.154.396s-.234.154-.396.154h-2.641a.536.536 0 0 1-.396-.154.532.532 0 0 1-.154-.396v-14.3c0-.161.051-.293.154-.396a.534.534 0 0 1 .396-.154h2.332c.249 0 .429.055.539.165.11.11.18.194.209.253l5.368 8.47V30.85c0-.161.051-.293.154-.396a.534.534 0 0 1 .396-.154h2.64c.162 0 .294.051.396.154a.536.536 0 0 1 .154.396v14.3c0 .146-.052.275-.154.385s-.234.165-.396.165h-2.354c-.234 0-.407-.059-.517-.176Zm14.006 14.148c-.059 1.364-.349 2.493-.869 3.388-.521.895-1.276 1.559-2.267 1.991-.989.433-2.203.649-3.641.649h-5.83a.536.536 0 0 1-.396-.154.532.532 0 0 1-.154-.396v-14.3c0-.161.051-.293.154-.396a.534.534 0 0 1 .396-.154h5.72c1.438 0 2.662.231 3.675.693 1.012.462 1.789 1.137 2.332 2.024.542.888.836 1.984.88 3.289.014.646.021 1.21.021 1.694s-.008 1.042-.021 1.672Z" class="cls-1"/><path d="M61.701 33.358h-2.553v3.806h2.553c.688 0 1.206-.168 1.551-.506s.517-.799.517-1.386c0-.572-.165-1.034-.495-1.386-.329-.352-.854-.528-1.572-.528Z" class="cls-1"/></svg>