<svg aria-hidden="true" style="position: absolute; width: 0; height: 0; overflow: hidden;" version="1.1" xmlns="http://www.w3.org/2000/svg" xmlns:xlink="http://www.w3.org/1999/xlink">
  <defs>
    <symbol id="electrical-pylon" viewBox="0 0 800 800">
      <path fill="#425366" fill-rule="nonzero" d="M800 126.934 508.998 0H291.003L0 126.934v109.178h261.398L111.316 747.469H1.625v52.533h796.752v-52.533H688.686L538.604 236.112h261.398V126.934H800ZM322.749 52.533h154.504v131.046H322.749V52.533Zm-6.601 183.579h167.706l25.445 86.693-109.298 119.054-109.299-119.054 25.446-86.693ZM52.533 183.579v-22.245l217.683-94.953v117.198H52.533Zm220.893 198.088 90.917 99.032L187.976 672.81l85.45-291.143Zm-82.673 365.8L400.001 519.54l209.248 227.927H190.753Zm421.271-74.657L435.659 480.7l90.915-99.031 85.45 291.141Zm135.445-489.231H529.786V66.381l217.683 94.953v22.245Z"/><path fill="#5a7b35" d="M2.47 747.6h794.399v52.488H2.47z"/>
    </symbol>
    <symbol id="chimney-smoke" viewBox="0 0 800 800">
      <path fill="#425366" fill-rule="nonzero" d="M327.302.164c-10.905 0-18.174 7.27-18.174 18.174 0 10.903-7.271 18.174-18.174 18.174-30.897 0-54.523 23.626-54.523 54.523 0 10.904-7.27 18.173-18.174 18.173-10.903 0-18.173 7.271-18.173 18.174 0 10.903 7.27 18.174 18.173 18.174 30.897 0 54.523-23.626 54.523-54.523 0-10.905 7.271-18.174 18.174-18.174 30.897 0 54.523-23.626 54.523-54.523 0-10.903-7.27-18.172-18.175-18.172ZM436.349.164c-30.897 0-54.523 23.626-54.523 54.523 0 10.905-7.27 18.174-18.174 18.174-30.896 0-54.523 23.626-54.523 54.523 0 10.905 7.271 18.173 18.174 18.173 10.905 0 18.174-7.27 18.174-18.173 0-10.904 7.271-18.174 18.174-18.174 30.897 0 54.523-23.626 54.523-54.523 0-10.905 7.27-18.174 18.174-18.174s18.173-7.27 18.173-18.174c0-10.903-7.269-18.175-18.172-18.175ZM599.918 145.559c-30.897 0-54.523 23.626-54.523 54.523 0 10.905-7.27 18.174-18.174 18.174-10.905 0-18.174 7.27-18.174 18.174s7.271 18.173 18.174 18.173c30.897 0 54.523-23.626 54.523-54.523 0-10.904 7.271-18.173 18.174-18.173 10.903 0 18.174-7.271 18.174-18.174 0-10.903-7.269-18.174-18.174-18.174Z"/><path fill="#425366" fill-rule="nonzero" stroke="#425366" d="M690.79 145.559c-10.905 0-18.174 7.271-18.174 18.174 0 10.903-7.27 18.174-18.173 18.174-30.897 0-54.523 23.626-54.523 54.523 0 10.904 7.27 18.173 18.173 18.173 10.905 0 18.174-7.27 18.174-18.173 0-10.905 7.271-18.174 18.174-18.174 30.897 0 54.523-23.626 54.523-54.523 0-10.905-7.269-18.174-18.174-18.174ZM798.018 774.392l-34.531-87.238c-49.071-121.769-72.697-248.988-72.697-378.026 0-10.905-7.27-18.174-18.174-18.174H490.872c-10.905 0-18.174 7.271-18.174 18.174v72.697c0 10.905 7.271 18.173 18.174 18.173h109.046c10.905 0 18.174-7.27 18.174-18.173 0-10.904-7.271-18.174-18.174-18.174h-90.872v-36.349h145.395c1.818 129.037 27.262 254.441 74.515 374.391l25.444 61.794H539.943l-27.263-76.333c-50.888-143.577-76.332-294.424-76.332-447.09V200.08c0-10.904-7.271-18.173-18.174-18.173h-290.79c-10.905 0-18.174 7.27-18.174 18.173v39.984c0 152.664-25.444 303.511-76.333 447.09L1.982 776.21c-3.634 5.452-1.818 10.905 1.818 16.357 3.634 3.635 9.087 7.271 14.539 7.271h436.186c10.904 0 18.173-7.271 18.173-18.174 0-10.904-7.27-18.174-18.173-18.174H43.782l23.626-65.428c50.889-147.213 78.149-301.695 78.149-457.993v-21.81h254.441v21.81c0 18.174 0 34.531 1.818 50.888H200.082c-10.905 0-18.174 7.271-18.174 18.174 0 10.903 7.271 18.174 18.174 18.174h203.552c7.271 127.221 32.714 250.806 76.333 370.757l30.897 89.054c1.818 7.271 9.087 12.722 16.357 12.722h254.441c5.453 0 10.905-3.635 14.54-7.271 3.634-3.636 5.452-12.723 1.816-18.175Z"/><path fill="#5a7b35" d="M-.12 760.671h800v40.662h-800z"/>
    </symbol>
    <symbol id="wind-turbine" viewBox="0 0 800 800">
      <path fill="#ffffff" fill-rule="nonzero" d="M702.857 728.571H474.286L438.571 390c7.143-4.286 12.858-10 18.572-15.714l157.143 111.428c2.857 1.429 5.714 2.857 8.571 2.857 2.857 0 7.143-1.428 10-4.285l21.429-20c2.857-2.857 4.285-7.143 4.285-10s-1.428-8.572-4.285-10L502.857 305.714c-5.714-5.714-14.286-4.285-20 0l-8.571 8.572c-4.286-30-25.715-52.857-54.286-61.429l50-180c1.429-7.143-1.429-14.286-8.571-17.143l-27.143-11.428c-7.143-2.857-15.715 0-18.572 7.143l-82.857 185.714c-1.428 2.857-1.428 7.143 0 11.428 1.429 4.286 4.286 7.143 8.572 8.572L360 264.286c-20 12.857-32.857 35.714-32.857 62.857 0 2.857 0 4.286 1.428 7.143l-200 34.285c-4.285 1.429-7.142 2.858-10 7.143-1.428 2.857-2.857 7.143-1.428 11.429l8.571 28.571c1.429 5.715 7.143 10 14.286 10h1.429l201.428-11.428c7.143 0 14.286-7.143 12.857-14.286v-14.286c1.429 1.429 4.286 2.857 5.715 2.857l-35.715 340H97.143c-8.572 0-14.286 5.715-14.286 14.286 0 8.572 5.714 14.286 14.286 14.286h607.143c8.571 0 14.285-5.714 14.285-14.286 0-8.571-7.142-14.286-15.714-14.286Zm-210-392.857 130 118.572-1.428 1.428-145.715-102.857 17.143-17.143Zm-57.143-260 2.857 1.429-45.714 168.571-27.143-11.428 70-158.572ZM400 278.571c25.714 0 47.143 21.429 47.143 47.143 0 25.715-21.429 45.715-47.143 45.715-25.714 0-47.143-21.429-47.143-47.143 0-25.715 21.429-45.715 47.143-45.715ZM150 395.714v-1.428l178.571-32.857v25.714L150 395.714Zm205.714 332.857 34.286-330c2.857 0 7.143 1.429 10 1.429s7.143 0 10-1.429l34.286 330h-88.572Z"/><path fill="#5a7b35" d="M703.957 728.446c7.727 0 14 6.273 14 14s-6.273 14-14 14H95.803c-7.726 0-14-6.273-14-14s6.274-14 14-14h608.154Z"/>
    </symbol>
  </defs>
</svg>
