<svg aria-hidden="true" style="position: absolute; width: 0; height: 0; overflow: hidden;" version="1.1" xmlns="https://www.w3.org/2000/svg" xmlns:xlink="https://www.w3.org/1999/xlink">
  <defs>
    <symbol id="electrical-pylon" viewBox="0 0 800 800">
      <path fill="#425366" fill-rule="nonzero" d="M800 126.934 508.998 0H291.003L0 126.934v109.178h261.398L111.316 747.469H1.625v52.533h796.752v-52.533H688.686L538.604 236.112h261.398V126.934H800ZM322.749 52.533h154.504v131.046H322.749V52.533Zm-6.601 183.579h167.706l25.445 86.693-109.298 119.054-109.299-119.054 25.446-86.693ZM52.533 183.579v-22.245l217.683-94.953v117.198H52.533Zm220.893 198.088 90.917 99.032L187.976 672.81l85.45-291.143Zm-82.673 365.8L400.001 519.54l209.248 227.927H190.753Zm421.271-74.657L435.659 480.7l90.915-99.031 85.45 291.141Zm135.445-489.231H529.786V66.381l217.683 94.953v22.245Z"/><path fill="#5a7b35" d="M2.47 747.6h794.399v52.488H2.47z"/>
    </symbol>
    <symbol id="chimney-smoke" fill-rule="evenodd" stroke-linecap="round" stroke-linejoin="round" stroke-miterlimit="1.5" clip-rule="evenodd" viewBox="0 0 800 800">
      <path fill="#425366" fill-rule="nonzero" d="M327.302.164c-10.905 0-18.174 7.27-18.174 18.174 0 10.903-7.271 18.174-18.174 18.174-30.897 0-54.523 23.626-54.523 54.523 0 10.904-7.27 18.173-18.174 18.173-10.903 0-18.173 7.271-18.173 18.174 0 10.903 7.27 18.174 18.173 18.174 30.897 0 54.523-23.626 54.523-54.523 0-10.905 7.271-18.174 18.174-18.174 30.897 0 54.523-23.626 54.523-54.523 0-10.903-7.27-18.172-18.175-18.172ZM436.349.164c-30.897 0-54.523 23.626-54.523 54.523 0 10.905-7.27 18.174-18.174 18.174-30.896 0-54.523 23.626-54.523 54.523 0 10.905 7.271 18.173 18.174 18.173 10.905 0 18.174-7.27 18.174-18.173 0-10.904 7.271-18.174 18.174-18.174 30.897 0 54.523-23.626 54.523-54.523 0-10.905 7.27-18.174 18.174-18.174s18.173-7.27 18.173-18.174c0-10.903-7.269-18.175-18.172-18.175ZM599.918 145.559c-30.897 0-54.523 23.626-54.523 54.523 0 10.905-7.27 18.174-18.174 18.174-10.905 0-18.174 7.27-18.174 18.174s7.271 18.173 18.174 18.173c30.897 0 54.523-23.626 54.523-54.523 0-10.904 7.271-18.173 18.174-18.173 10.903 0 18.174-7.271 18.174-18.174 0-10.903-7.269-18.174-18.174-18.174ZM690.79 145.559c-10.905 0-18.174 7.271-18.174 18.174 0 10.903-7.27 18.174-18.173 18.174-30.897 0-54.523 23.626-54.523 54.523 0 10.904 7.27 18.173 18.173 18.173 10.905 0 18.174-7.27 18.174-18.173 0-10.905 7.271-18.174 18.174-18.174 30.897 0 54.523-23.626 54.523-54.523 0-10.905-7.269-18.174-18.174-18.174Z"/><path fill="#425366" fill-rule="nonzero" d="m798.018 774.392-34.531-87.238c-49.071-121.769-72.697-248.988-72.697-378.026 0-10.905-7.27-18.174-18.174-18.174H490.872c-10.905 0-18.174 7.271-18.174 18.174v72.697c0 10.905 7.271 18.173 18.174 18.173h109.046c10.905 0 18.174-7.27 18.174-18.173 0-10.904-7.271-18.174-18.174-18.174h-90.872v-36.349h145.395c1.818 129.037 27.262 254.441 74.515 374.391l25.444 61.794H539.943l-27.263-76.333c-50.888-143.577-76.332-294.424-76.332-447.09V200.08c0-10.904-7.271-18.173-18.174-18.173h-290.79c-10.905 0-18.174 7.27-18.174 18.173v39.984c0 152.664-25.444 303.511-76.333 447.09L1.982 776.21c-3.634 5.452-1.818 10.905 1.818 16.357 3.634 3.635 9.087 7.271 14.539 7.271h436.186c10.904 0 18.173-7.271 18.173-18.174 0-10.904-7.27-18.174-18.173-18.174H43.782l23.626-65.428c50.889-147.213 78.149-301.695 78.149-457.993v-21.81h254.441v21.81c0 18.174 0 34.531 1.818 50.888H200.082c-10.905 0-18.174 7.271-18.174 18.174 0 10.903 7.271 18.174 18.174 18.174h203.552c7.271 127.221 32.714 250.806 76.333 370.757l30.897 89.054c1.818 7.271 9.087 12.722 16.357 12.722h254.441c5.453 0 10.905-3.635 14.54-7.271 3.634-3.636 5.452-12.723 1.816-18.175Z"/><path fill="none" stroke="#5a7b35" stroke-width="38" d="M21.463 781.295h432.121M19.748 781.295h1.304M529.377 781.775h252.192"/>
    </symbol>
    <symbol id="wind-turbine" viewBox="0 0 800 800">
      <path fill="#ffffff" fill-rule="nonzero" d="M702.857 728.571H474.286L438.571 390c7.143-4.286 12.858-10 18.572-15.714l157.143 111.428c2.857 1.429 5.714 2.857 8.571 2.857 2.857 0 7.143-1.428 10-4.285l21.429-20c2.857-2.857 4.285-7.143 4.285-10s-1.428-8.572-4.285-10L502.857 305.714c-5.714-5.714-14.286-4.285-20 0l-8.571 8.572c-4.286-30-25.715-52.857-54.286-61.429l50-180c1.429-7.143-1.429-14.286-8.571-17.143l-27.143-11.428c-7.143-2.857-15.715 0-18.572 7.143l-82.857 185.714c-1.428 2.857-1.428 7.143 0 11.428 1.429 4.286 4.286 7.143 8.572 8.572L360 264.286c-20 12.857-32.857 35.714-32.857 62.857 0 2.857 0 4.286 1.428 7.143l-200 34.285c-4.285 1.429-7.142 2.858-10 7.143-1.428 2.857-2.857 7.143-1.428 11.429l8.571 28.571c1.429 5.715 7.143 10 14.286 10h1.429l201.428-11.428c7.143 0 14.286-7.143 12.857-14.286v-14.286c1.429 1.429 4.286 2.857 5.715 2.857l-35.715 340H97.143c-8.572 0-14.286 5.715-14.286 14.286 0 8.572 5.714 14.286 14.286 14.286h607.143c8.571 0 14.285-5.714 14.285-14.286 0-8.571-7.142-14.286-15.714-14.286Zm-210-392.857 130 118.572-1.428 1.428-145.715-102.857 17.143-17.143Zm-57.143-260 2.857 1.429-45.714 168.571-27.143-11.428 70-158.572ZM400 278.571c25.714 0 47.143 21.429 47.143 47.143 0 25.715-21.429 45.715-47.143 45.715-25.714 0-47.143-21.429-47.143-47.143 0-25.715 21.429-45.715 47.143-45.715ZM150 395.714v-1.428l178.571-32.857v25.714L150 395.714Zm205.714 332.857 34.286-330c2.857 0 7.143 1.429 10 1.429s7.143 0 10-1.429l34.286 330h-88.572Z"/><path fill="#5a7b35" d="M703.957 728.446c7.727 0 14 6.273 14 14s-6.273 14-14 14H95.803c-7.726 0-14-6.273-14-14s6.274-14 14-14h608.154Z"/>
    </symbol>
    <symbol id="co2e" viewBox="0 0 100 100">
      <path fill="none" d="M.163.123h99.877v99.753H.163z"/><path fill="#425366" fill-rule="nonzero" d="M34.714 51.95c0 .69-.18 1.41-.51 2.22-.33.78-.87 1.56-1.59 2.34-.72.78-1.65 1.38-2.76 1.86-1.14.48-2.43.72-3.93.72-1.14 0-2.16-.09-3.09-.33a8.5 8.5 0 0 1-2.52-.99 8.388 8.388 0 0 1-2.1-1.8 9.611 9.611 0 0 1-1.44-2.25c-.42-.84-.72-1.74-.9-2.67-.21-.96-.3-1.95-.3-3.03 0-1.74.24-3.27.75-4.65.51-1.35 1.23-2.52 2.16-3.51.93-.96 2.04-1.71 3.3-2.22 1.26-.51 2.61-.75 4.02-.75 1.74 0 3.3.36 4.65 1.05 1.35.69 2.4 1.53 3.12 2.55.72 1.02 1.08 1.98 1.08 2.91 0 .48-.18.93-.54 1.32-.33.36-.75.57-1.26.57-.57 0-.96-.15-1.26-.39-.27-.27-.57-.72-.93-1.38-.57-1.05-1.23-1.86-1.98-2.37-.78-.54-1.71-.81-2.85-.81-1.77 0-3.21.69-4.26 2.04-1.08 1.35-1.59 3.3-1.59 5.79 0 1.68.24 3.06.69 4.17.48 1.11 1.14 1.92 2.01 2.49.84.54 1.86.81 3 .81 1.26 0 2.31-.3 3.18-.93.87-.63 1.5-1.53 1.95-2.73.18-.57.42-1.02.69-1.38.27-.36.72-.54 1.32-.54.51 0 .96.18 1.32.54.39.36.57.81.57 1.35ZM48.071 36.89c2.22 0 4.14.45 5.73 1.35 1.59.9 2.82 2.19 3.63 3.87.81 1.65 1.23 3.6 1.23 5.85 0 1.65-.21 3.18-.66 4.53-.45 1.35-1.14 2.52-2.04 3.54-.9.99-1.98 1.74-3.3 2.28-1.32.51-2.82.78-4.5.78-1.68 0-3.18-.27-4.5-.81-1.35-.54-2.46-1.29-3.33-2.28-.9-.99-1.56-2.19-2.01-3.57-.48-1.38-.69-2.88-.69-4.5 0-1.65.24-3.15.72-4.53.45-1.38 1.14-2.55 2.04-3.51.9-.99 2.01-1.71 3.3-2.22 1.29-.51 2.73-.78 4.38-.78Zm6.18 11.04c0-1.56-.24-2.94-.75-4.08-.51-1.17-1.23-2.04-2.19-2.61-.93-.6-2.01-.9-3.24-.9-.87 0-1.68.18-2.4.51-.75.3-1.38.78-1.92 1.41-.51.63-.93 1.44-1.26 2.4-.3.96-.45 2.07-.45 3.27 0 1.23.15 2.34.45 3.3.33.99.75 1.83 1.32 2.46.54.66 1.2 1.14 1.92 1.47.72.33 1.53.48 2.4.48 1.11 0 2.13-.27 3.06-.84.93-.54 1.68-1.41 2.25-2.58.54-1.17.81-2.58.81-4.29Z"/><path fill="#5a7b35" fill-rule="nonzero" d="M63.657 60.475h4.08c.4 0 .72.08.928.24.208.176.32.4.32.688 0 .256-.08.464-.256.64-.16.176-.416.272-.768.272h-5.744c-.4 0-.704-.112-.912-.32a1.057 1.057 0 0 1-.336-.768c0-.192.08-.432.208-.752.144-.304.304-.544.464-.72a49.764 49.764 0 0 1 1.872-1.856c.56-.512.96-.848 1.2-1.008a7.07 7.07 0 0 0 1.072-.912c.272-.304.496-.608.64-.928.16-.32.224-.64.224-.944 0-.336-.08-.64-.24-.896a1.56 1.56 0 0 0-.64-.608 1.735 1.735 0 0 0-.896-.224c-.688 0-1.216.304-1.616.896-.048.08-.128.288-.256.64-.128.352-.256.624-.416.8-.16.192-.384.288-.672.288-.272 0-.48-.08-.656-.256a1.025 1.025 0 0 1-.256-.704c0-.368.08-.736.24-1.12.16-.4.4-.752.72-1.072.32-.32.736-.576 1.232-.768.48-.192 1.056-.288 1.728-.288.8 0 1.472.128 2.032.368.368.176.688.4.96.688.288.288.496.624.656 1.008.144.384.224.784.224 1.2 0 .64-.16 1.232-.48 1.76-.32.528-.656.944-.976 1.248-.336.288-.896.768-1.68 1.408-.784.64-1.328 1.136-1.616 1.488a3.55 3.55 0 0 0-.384.512Z"/><path fill="#425366" fill-rule="nonzero" d="M81.007 53.345h-6.264c.024.72.168 1.368.432 1.92.288.552.672.984 1.152 1.248.48.288.984.432 1.56.432.384 0 .744-.048 1.056-.144.312-.096.624-.216.912-.408.288-.192.576-.408.816-.624.264-.216.576-.504.984-.888.168-.144.384-.216.696-.216.336 0 .6.096.792.264.216.192.312.432.312.768 0 .288-.12.624-.336 1.008-.24.384-.576.768-1.032 1.128-.456.36-1.032.648-1.728.888a7.998 7.998 0 0 1-2.376.336c-2.064 0-3.648-.576-4.8-1.752-1.128-1.176-1.704-2.76-1.704-4.776 0-.936.144-1.824.432-2.616a5.347 5.347 0 0 1 1.224-2.088 5.003 5.003 0 0 1 1.992-1.32 7.05 7.05 0 0 1 2.616-.48c1.248 0 2.328.264 3.216.792.888.528 1.56 1.224 2.016 2.04.456.84.672 1.704.672 2.568 0 .792-.24 1.32-.696 1.56-.456.24-1.104.36-1.944.36Zm-6.264-1.824h5.808c-.072-1.08-.384-1.896-.888-2.448s-1.176-.816-2.016-.816c-.792 0-1.464.264-1.968.816-.504.552-.816 1.368-.936 2.448Z"/>
    </symbol>
  </defs>
</svg>
