<svg aria-hidden="true" style="position: absolute; width: 0; height: 0; overflow: hidden;" version="1.1" xmlns="http://www.w3.org/2000/svg" xmlns:xlink="http://www.w3.org/1999/xlink">
<defs>
<symbol id="icon-arrow-right" viewBox="0 0 16 16">
  <path d="M5.5 0l-1 1 7 7-7 7 1 1 8-8-8-8z"></path>
</symbol>
<symbol id="icon-arrow-left" viewBox="0 0 16 16">
  <path d="M10.5 16l1-1-7-7 7-7-1-1-8 8 8 8z"></path>
</symbol>
<symbol id="icon-arrow-right-bold" viewBox="0 0 16 16">
<path d="M5.5 0l-2 2 6 6-6 6 2 2 8-8-8-8z"></path>
</symbol>
<symbol id="icon-arrow-left-bold" viewBox="0 0 16 16">
<path d="M10.5 16l2-2-6-6 6-6-2-2-8 8 8 8z"></path>
</symbol>
<symbol id="icon-arrow-down" viewBox="0 0 16 16">
  <path d="M13.707 9.707l-5 5c-0.39 0.391-1.024 0.391-1.414 0l-5-5c-0.391-0.391-0.391-1.024 0-1.414s1.024-0.391 1.414 0l3.293 3.293v-9.586c0-0.552 0.448-1 1-1s1 0.448 1 1v9.586l3.293-3.293c0.195-0.195 0.451-0.293 0.707-0.293s0.512 0.098 0.707 0.293c0.391 0.391 0.391 1.024 0 1.414z"></path>
</symbol>
<symbol id="icon-linkedin2" viewBox="0 0 16 16">
  <path d="M6 6h2.767v1.418h0.040c0.385-0.691 1.327-1.418 2.732-1.418 2.921 0 3.461 1.818 3.461 4.183v4.817h-2.885v-4.27c0-1.018-0.021-2.329-1.5-2.329-1.502 0-1.732 1.109-1.732 2.255v4.344h-2.883v-9z"></path>
  <path d="M1 6h3v9h-3v-9z"></path>
  <path d="M4 3.5c0 0.828-0.672 1.5-1.5 1.5s-1.5-0.672-1.5-1.5c0-0.828 0.672-1.5 1.5-1.5s1.5 0.672 1.5 1.5z"></path>
</symbol>
<symbol id="icon-light-mode" viewBox="0 0 20 20">
  <path d="M10 16.25c0.69 0 1.25 0.56 1.25 1.25v1.25c0 0.69-0.56 1.25-1.25 1.25s-1.25-0.56-1.25-1.25v-1.25c0-0.69 0.56-1.25 1.25-1.25zM10 3.75c-0.69 0-1.25-0.56-1.25-1.25v-1.25c0-0.69 0.56-1.25 1.25-1.25s1.25 0.56 1.25 1.25v1.25c0 0.69-0.56 1.25-1.25 1.25zM18.75 8.75c0.69 0 1.25 0.56 1.25 1.25s-0.56 1.25-1.25 1.25h-1.25c-0.69 0-1.25-0.56-1.25-1.25s0.56-1.25 1.25-1.25h1.25zM3.75 10c0 0.69-0.56 1.25-1.25 1.25h-1.25c-0.69 0-1.25-0.56-1.25-1.25s0.56-1.25 1.25-1.25h1.25c0.69 0 1.25 0.56 1.25 1.25zM16.187 14.419l0.884 0.884c0.488 0.488 0.488 1.28 0 1.768s-1.28 0.488-1.768 0l-0.884-0.884c-0.488-0.488-0.488-1.28 0-1.768s1.28-0.488 1.768 0zM3.813 5.581l-0.884-0.884c-0.488-0.488-0.488-1.28 0-1.768s1.28-0.488 1.768 0l0.884 0.884c0.488 0.488 0.488 1.28 0 1.768s-1.28 0.488-1.768 0zM16.187 5.581c-0.488 0.488-1.28 0.488-1.768 0s-0.488-1.28 0-1.768l0.884-0.884c0.488-0.488 1.28-0.488 1.768 0s0.488 1.28 0 1.768l-0.884 0.884zM3.813 14.419c0.488-0.488 1.28-0.488 1.768 0s0.488 1.28 0 1.768l-0.884 0.884c-0.488 0.488-1.28 0.488-1.768 0s-0.488-1.28 0-1.768l0.884-0.884z"></path>
  <path d="M10 5c-2.761 0-5 2.239-5 5s2.239 5 5 5c2.761 0 5-2.239 5-5s-2.239-5-5-5zM10 13.125c-1.726 0-3.125-1.399-3.125-3.125s1.399-3.125 3.125-3.125 3.125 1.399 3.125 3.125-1.399 3.125-3.125 3.125z"></path>
</symbol>
<symbol id="icon-dark-mode" viewBox="0 0 20 20">
  <path d="M13.981 1.259c-1.177-0.679-2.434-1.092-3.703-1.259 2.401 3.127 2.828 7.515 0.734 11.141s-6.107 5.451-10.015 4.935c0.779 1.015 1.765 1.897 2.942 2.577 4.803 2.773 10.945 1.127 13.718-3.676s1.128-10.945-3.676-13.718z"></path>
</symbol>
</defs>
</svg>
