<svg aria-hidden="true" style="position: absolute; width: 0; height: 0; overflow: hidden;" version="1.1" xmlns="https://www.w3.org/2000/svg" xmlns:xlink="https://www.w3.org/1999/xlink">
  <defs>
    <symbol id="leaf1" viewBox="0 0 100 100">
      <path fill="#5a7b35" stroke-width="0" d="M72.537,78.814h-18.21c-16.889,0-30.628-13.739-30.628-30.627v-31.505h18.21c16.889,0,30.628,13.739,30.628,30.627v31.505ZM26.699,19.681v28.505c0,15.234,12.394,27.627,27.628,27.627h15.21v-28.505c0-15.234-12.394-27.627-27.628-27.627h-15.21Z"/>
      <path fill="#425366" stroke-width="0" d="M74.802,83.319c-.446,0-.887-.198-1.183-.577l-33.946-43.449c-.511-.653-.395-1.595.258-2.105.653-.51,1.595-.396,2.105.259l33.946,43.449c.511.653.395,1.595-.258,2.105-.274.214-.6.318-.923.318Z"/>
      <path fill="#425366" stroke-width="0" d="M53.204,55.651c-.197,0-.398-.04-.592-.123-.761-.328-1.112-1.21-.785-1.971l4.707-10.937c.326-.761,1.206-1.113,1.971-.785.761.328,1.112,1.21.785,1.971l-4.707,10.937c-.244.568-.798.908-1.379.908Z"/>
      <path fill="#425366" stroke-width="0" d="M37.031,50.472c-.722,0-1.358-.522-1.479-1.258-.134-.818.421-1.589,1.238-1.723l10.734-1.755c.821-.135,1.589.421,1.723,1.238.134.818-.421,1.589-1.238,1.723l-10.734,1.755c-.082.013-.164.02-.244.02Z"/>
      <path fill="#425366" stroke-width="0" d="M48.116,66.05c-.722,0-1.358-.522-1.479-1.258-.134-.818.421-1.589,1.238-1.723l11.697-1.912c.819-.132,1.59.421,1.723,1.238.134.818-.421,1.589-1.238,1.723l-11.697,1.912c-.082.013-.164.02-.244.02Z"/>
    </symbol>
    <symbol id="leaf2" viewBox="0 0 100 100">
      <path fill="#5a7b35" stroke-width="0" d="M54.938,79.036c-6.767,0-13.439-4.174-19.95-12.509-11.871-15.194-11.697-46.663-11.685-47.995l.019-1.881,1.83.437c1.296.31,31.871,7.753,43.742,22.948,10.684,13.674,10.396,25.064-.853,33.853-4.394,3.432-8.768,5.146-13.104,5.146ZM26.326,20.497c.162,7.095,1.421,31.891,11.025,44.184,9.59,12.274,19.026,14.517,28.843,6.845,9.817-7.67,9.928-17.366.337-29.642-9.605-12.293-33.359-19.514-40.205-21.387Z"/>
      <path fill="#425366" stroke-width="0" d="M74.296,83.394c-.446,0-.887-.198-1.183-.577l-33.376-42.72c-.511-.653-.395-1.595.258-2.105.652-.509,1.596-.395,2.105.259l33.376,42.72c.511.653.395,1.595-.258,2.105-.274.214-.6.318-.923.318Z"/>
      <path fill="#425366" stroke-width="0" d="M41.226,51.448c-.671,0-1.281-.453-1.453-1.132-.203-.803.283-1.619,1.086-1.822l6.769-1.714c.801-.202,1.619.283,1.822,1.086s-.283,1.619-1.086,1.822l-6.769,1.714c-.123.031-.247.046-.369.046Z"/>
      <path fill="#425366" stroke-width="0" d="M46.879,65.046c-.679,0-1.294-.464-1.458-1.153-.192-.806.306-1.615,1.111-1.807l11.029-2.624c.813-.188,1.615.307,1.807,1.112.192.806-.306,1.615-1.111,1.807l-11.029,2.624c-.117.027-.234.041-.349.041Z"/>
      <path fill="#425366" stroke-width="0" d="M47.995,49.734c-.239,0-.482-.058-.708-.179-.73-.392-1.005-1.301-.613-2.031l3.301-6.153c.393-.729,1.304-1.003,2.031-.613.73.392,1.005,1.301.613,2.031l-3.301,6.153c-.271.504-.789.792-1.323.792Z"/>
      <path fill="#425366" stroke-width="0" d="M57.908,62.422c-.232,0-.469-.054-.688-.168-.736-.381-1.023-1.286-.643-2.022l5.215-10.067c.381-.735,1.29-1.022,2.021-.642.736.381,1.023,1.286.643,2.022l-5.215,10.067c-.267.515-.791.811-1.333.811Z"/>
    </symbol>
    <symbol id="leaf3" viewBox="0 0 100 100">
      <path fill="#5a7b35" stroke-width="0" d="M46.943,79.333c-4.02,0-7.742-2.159-11.075-6.425-12.333-15.786-13.491-52.925-13.534-54.499l-.057-2.032,1.958.546c1.517.422,37.272,10.531,49.605,26.317,3.504,4.484,4.644,8.823,3.39,12.896-2.299,7.464-11.967,11.346-14.356,12.203-1.408,2.111-7.514,10.552-15.312,10.977-.207.011-.413.017-.618.017ZM25.425,20.406c.434,8.1,2.686,37.7,12.806,50.655,2.864,3.665,5.944,5.438,9.167,5.259,7.182-.392,13.164-9.925,13.224-10.021l.29-.469.526-.169c.108-.035,10.82-3.557,12.927-10.414.945-3.079-.026-6.497-2.888-10.16h0c-10.126-12.961-38.299-22.302-46.052-24.681Z"/>
      <path fill="#425366" stroke-width="0" d="M73.465,83.394c-.446,0-.887-.198-1.183-.577l-32.318-41.367c-.511-.653-.395-1.595.258-2.105.652-.509,1.595-.395,2.105.259l32.318,41.367c.511.653.395,1.595-.258,2.105-.274.214-.6.318-.923.318Z"/>
      <path fill="#425366" stroke-width="0" d="M54.927,59.656c-.232,0-.469-.054-.688-.168-.736-.381-1.023-1.286-.643-2.022l5.108-9.864c.381-.736,1.29-1.021,2.021-.642.736.381,1.023,1.286.643,2.022l-5.108,9.864c-.267.515-.791.811-1.333.811Z"/>
      <path fill="#425366" stroke-width="0" d="M38.2,54.724c-.679,0-1.294-.464-1.458-1.153-.192-.806.306-1.615,1.112-1.807l10.807-2.571c.808-.188,1.614.307,1.806,1.112.192.806-.306,1.615-1.112,1.807l-10.807,2.571c-.116.027-.233.041-.348.041Z"/>
    </symbol>
    <symbol id="leaf4" viewBox="0 0 100 100">
      <path fill="#5a7b35" stroke-width="0" d="M53.219,79.206c-3.656,0-7.276-1.62-9.697-4.718-1.632-2.089-2.529-4.652-2.59-7.278-5.635,1.36-11.685-.66-15.332-5.329-2.465-3.154-3.554-7.08-3.065-11.053.409-3.334,1.888-6.368,4.218-8.713-.843-.677-1.6-1.444-2.264-2.294-4.823-6.173-3.725-15.119,2.448-19.941,2.99-2.335,6.713-3.369,10.478-2.905,3.767.462,7.127,2.364,9.463,5.354.665.85,1.227,1.771,1.68,2.752,6.385-3.792,14.769-2.339,19.457,3.663h0c3.648,4.669,4.146,11.028,1.461,16.166,2.534.694,4.804,2.185,6.436,4.274,2.021,2.586,2.914,5.805,2.514,9.063-.4,3.258-2.045,6.165-4.632,8.186-2.428,1.896-5.444,2.794-8.478,2.568-.513,2.999-2.116,5.708-4.543,7.605-2.242,1.751-4.907,2.6-7.553,2.6ZM42.584,63.596c.334,0,.665.112.935.327.428.341.637.887.544,1.426-.443,2.583.222,5.24,1.823,7.291,3.154,4.037,9.004,4.755,13.038,1.601,2.165-1.691,3.464-4.242,3.562-6.996.016-.443.227-.856.575-1.129.35-.273.8-.377,1.235-.285,2.692.57,5.483-.07,7.648-1.763,1.956-1.527,3.199-3.725,3.502-6.188.302-2.463-.372-4.896-1.899-6.851-1.603-2.05-4.021-3.337-6.634-3.532-.546-.041-1.025-.375-1.253-.873s-.166-1.079.16-1.518c3.206-4.315,3.136-10.285-.17-14.517h0c-4.07-5.207-11.617-6.135-16.825-2.065-.389.312-.933.433-1.408.286-.477-.147-.873-.5-1.017-.978-.406-1.344-1.041-2.575-1.887-3.657-1.843-2.359-4.494-3.859-7.465-4.224-2.977-.366-5.907.449-8.265,2.292-4.87,3.804-5.736,10.861-1.933,15.73.846,1.082,1.887,1.995,3.094,2.715.427.254.699.703.729,1.199.03.496-.188.974-.581,1.277-.025.02-.087.063-.113.082-2.474,1.934-4.078,4.77-4.468,7.947-.391,3.178.48,6.317,2.451,8.84,3.308,4.232,9.083,5.745,14.044,3.677.187-.077.382-.115.577-.115Z"/>
      <path fill="#425366" stroke-width="0" d="M75.382,83.394c-.446,0-.887-.198-1.183-.577l-33.946-43.449c-.511-.653-.395-1.595.258-2.105.652-.51,1.595-.396,2.105.259l33.946,43.449c.511.653.395,1.595-.258,2.105-.274.214-.6.318-.923.318Z"/>
      <path fill="#425366" stroke-width="0" d="M51.104,52.294c-.197,0-.398-.04-.592-.123-.761-.328-1.112-1.21-.785-1.971l4.707-10.937c.327-.761,1.206-1.114,1.971-.785.761.328,1.112,1.21.785,1.971l-4.707,10.937c-.244.568-.798.908-1.379.908Z"/>
      <path fill="#425366" stroke-width="0" d="M36.529,50.12c-.722,0-1.358-.522-1.479-1.258-.134-.818.421-1.589,1.238-1.723l10.734-1.755c.822-.133,1.589.421,1.723,1.238.134.818-.421,1.589-1.238,1.723l-10.734,1.755c-.082.013-.164.02-.244.02Z"/>
      <path fill="#425366" stroke-width="0" d="M44.146,60.462c-.722,0-1.358-.522-1.479-1.258-.134-.818.421-1.589,1.238-1.723l11.697-1.912c.817-.134,1.589.421,1.723,1.238.134.818-.421,1.589-1.238,1.723l-11.697,1.912c-.082.013-.164.02-.244.02Z"/>
    </symbol>
    <symbol id="leaf5" viewBox="0 0 100 100">
      <path fill="#5a7b35" stroke-width="0" d="M66.849,67.614h-.003c-4.036-.007-39.615-.317-45.907-8.953-2.142-2.938-2.157-6.871-.047-11.373,3.351-7.147,11.707-14.727,15.266-14.956,1.904-.111,4.133.993,6.191,2.422-.89-2.345-1.428-4.791-.853-6.594,1.084-3.398,10.46-9.672,18.206-11.194,4.879-.958,8.689.009,11.022,2.796,3.051,3.646,3.521,12.417,1.434,26.814-1.495,10.32-3.83,19.802-3.854,19.896-.166.669-.767,1.14-1.456,1.14ZM36.474,35.323c-.042,0-.083,0-.123.004-1.889.122-9.595,6.521-12.742,13.235-1.642,3.5-1.724,6.304-.246,8.333,1.259,1.727,5.988,4.888,23.525,6.658,8.135.821,15.894,1.007,18.779,1.049.658-2.811,2.354-10.384,3.525-18.476,2.525-17.445.603-22.799-.769-24.438-1.609-1.924-4.349-2.521-8.144-1.777-7.277,1.43-15.352,7.359-15.927,9.162-.692,2.173,2.048,7.868,4.216,11.217.422.652.275,1.518-.336,1.997-.613.478-1.487.41-2.019-.157-2.681-2.861-7.421-6.807-9.741-6.807Z"/>
      <path fill="#425366" stroke-width="0" d="M79.18,83.394c-.446,0-.887-.198-1.183-.577l-18.667-23.893c-.511-.653-.395-1.595.258-2.105.652-.509,1.595-.395,2.105.259l18.667,23.893c.511.653.395,1.595-.258,2.105-.274.214-.6.318-.923.318Z"/>
    </symbol>
    <symbol id="leaf6" viewBox="0 0 100 100">
      <path fill="#5a7b35" stroke-width="0" d="M49.978,78.225c-.724,0-1.443-.034-2.161-.101-6.928-.651-13.285-4.446-18.386-10.975-6.501-8.321-11.503-22.244-8.485-32.755,1.502-5.229,4.872-8.999,9.762-10.932,2.652-4.063,6.8-6.368,12.029-6.676,9.947-.589,23.158,6.276,30.725,15.962,10.286,13.165,8.239,27.934-5.34,38.543-5.839,4.562-12.067,6.934-18.144,6.934ZM43.936,19.751c-.346,0-.687.01-1.023.03-4.452.262-7.791,2.174-9.921,5.684l-.274.451-.496.181c-4.275,1.552-7.099,4.623-8.392,9.126-2.074,7.226-.005,19.878,7.965,30.08,4.58,5.862,10.218,9.263,16.303,9.835,5.964.564,12.259-1.586,18.177-6.21,12.306-9.613,14.108-22.448,4.824-34.332-6.64-8.498-18.354-14.844-27.162-14.844Z"/>
      <path fill="#425366" stroke-width="0" d="M76.406,83.394c-.446,0-.887-.198-1.183-.577l-36.738-47.023c-.511-.653-.395-1.595.258-2.105s1.595-.395,2.105.259l36.738,47.023c.511.653.395,1.595-.258,2.105-.274.214-.6.318-.923.318Z"/>
      <path fill="#425366" stroke-width="0" d="M48.131,67.699c-.619,0-1.198-.386-1.415-1.003-.274-.781.136-1.638.917-1.913l12.56-4.418c.784-.276,1.639.136,1.913.917s-.136,1.638-.917,1.913l-12.56,4.418c-.165.058-.333.085-.498.085Z"/>
      <path fill="#425366" stroke-width="0" d="M38.858,58.671c-.619,0-1.198-.386-1.415-1.003-.274-.781.136-1.638.917-1.913l14.301-5.031c.786-.275,1.639.136,1.913.917.274.781-.136,1.638-.917,1.913l-14.301,5.031c-.165.058-.333.085-.498.085Z"/>
      <path fill="#425366" stroke-width="0" d="M37.552,47.4c-.619,0-1.198-.386-1.415-1.003-.274-.781.136-1.638.917-1.913l8.418-2.961c.784-.275,1.639.136,1.913.917.274.781-.136,1.638-.917,1.913l-8.418,2.961c-.165.058-.333.085-.498.085Z"/>
      <path fill="#425366" stroke-width="0" d="M60.653,63.232c-.283,0-.57-.08-.824-.248-.691-.456-.883-1.386-.428-2.078l7.325-11.118c.457-.691,1.389-.882,2.078-.427.691.456.883,1.386.428,2.078l-7.325,11.118c-.289.438-.767.675-1.254.675Z"/>
      <path fill="#425366" stroke-width="0" d="M53.121,53.591c-.283,0-.57-.08-.824-.248-.691-.456-.883-1.386-.428-2.078l8.341-12.659c.457-.692,1.388-.882,2.078-.427.691.456.883,1.386.428,2.078l-8.341,12.659c-.289.438-.767.675-1.254.675Z"/>
      <path fill="#425366" stroke-width="0" d="M45.969,44.438c-.283,0-.57-.08-.824-.248-.691-.456-.883-1.386-.428-2.078l4.909-7.451c.458-.692,1.388-.883,2.078-.427.691.456.883,1.386.428,2.078l-4.909,7.451c-.289.438-.767.675-1.254.675Z"/>
    </symbol>
  </defs>
</svg>
