<svg aria-hidden="true" style="position: absolute; width: 0; height: 0; overflow: hidden;" version="1.1" xmlns="http://www.w3.org/2000/svg" xmlns:xlink="http://www.w3.org/1999/xlink">
  <defs>
    <symbol id="attractmore-logo" viewBox="0 0 500 500">
      <circle cx="373.43" cy="250" r="55.13"/>
      <path d="M290.32 410.07c-12.4 0-24.8-4.74-34.25-14.2-80.44-80.43-80.44-211.3 0-291.74a48.45 48.45 0 0 1 68.51 68.52c-42.65 42.65-42.64 112.05 0 154.71a48.44 48.44 0 0 1-34.26 82.7Z"/>
      <path d="M202.4 498a48.3 48.3 0 0 1-34.26-14.19c-128.92-128.92-128.92-338.7 0-467.62a48.44 48.44 0 1 1 68.5 68.51c-91.13 91.15-91.13 239.45 0 330.59A48.45 48.45 0 0 1 202.4 498Z"/>
    </symbol>
    <symbol id="gbc-logo" viewBox="0 0 267.86 285.35">
      <a xlink:href="99.42">
        <path d="M238.04 25H29.82C27.16 25 25 27.36 25 30.27v224.8c0 2.91 2.16 5.27 4.82 5.27h208.22c2.66 0 4.82-2.36 4.82-5.27V30.27c0-2.91-2.16-5.27-4.82-5.27Z"/>
      </a>
      <path fill="#fff" d="M62.34 127.7h-4.02c-.8-1.47-2.25-2.25-4.09-2.25-3.12 0-5.29 2.22-5.29 5.69s2.2 5.74 5.44 5.74c2.7 0 4.42-1.55 4.94-4.02h-5.99v-2.67h9.43v3.04a8.52 8.52 0 0 1-8.51 6.79c-5.07 0-8.91-3.67-8.91-8.89s3.84-8.91 8.89-8.91c3.89 0 6.99 1.97 8.11 5.47Zm9.16 12.4c-3.99 0-7.01-2.8-7.01-7.14s3.12-7.14 7.11-7.14 7.11 2.77 7.11 7.14-3.19 7.14-7.21 7.14Zm0-3.04c1.85 0 3.62-1.35 3.62-4.09s-1.72-4.09-3.57-4.09-3.52 1.32-3.52 4.09 1.6 4.09 3.47 4.09Zm15.92 3.04c-3.99 0-7.01-2.8-7.01-7.14s3.12-7.14 7.11-7.14 7.11 2.77 7.11 7.14-3.19 7.14-7.21 7.14Zm0-3.04c1.85 0 3.62-1.35 3.62-4.09s-1.72-4.09-3.57-4.09-3.52 1.32-3.52 4.09 1.6 4.09 3.47 4.09Zm15.22-11.24c1.82 0 3.57.85 4.52 2.15v-6.56h3.54v18.47h-3.54v-2.05a5.22 5.22 0 0 1-4.54 2.27c-3.52 0-6.31-2.87-6.31-7.19s2.8-7.09 6.34-7.09Zm.87 3.07c-1.87 0-3.64 1.4-3.64 4.02s1.77 4.12 3.64 4.12 3.67-1.45 3.67-4.07-1.75-4.07-3.67-4.07ZM53.7 164h-7.51v-17.42h7.19c3.64 0 5.67 1.9 5.67 4.49a4.01 4.01 0 0 1-2.97 3.99 4.23 4.23 0 0 1 3.37 4.22c0 2.77-2.12 4.72-5.74 4.72Zm-.82-14.6h-3.19v4.37h3.19c1.65 0 2.6-.75 2.6-2.17s-.95-2.2-2.6-2.2Zm.25 7.06h-3.44v4.69h3.52c1.7 0 2.7-.82 2.7-2.3s-1.07-2.4-2.77-2.4ZM75.29 164h-3.52v-1.75a5.1 5.1 0 0 1-4.12 1.92c-3.22 0-5.54-2.1-5.54-5.89v-8.11h3.49v7.61c0 2.22 1.22 3.42 3.07 3.42s3.09-1.2 3.09-3.42v-7.61h3.52V164Zm8.73.06c-3.47 0-5.89-2.02-6.04-4.59h3.52c.12 1.05 1.1 1.85 2.5 1.85s2.12-.62 2.12-1.42c0-2.47-7.81-.9-7.81-5.97 0-2.3 2.05-4.14 5.47-4.14s5.37 1.82 5.57 4.57h-3.34c-.1-1.07-.95-1.8-2.32-1.8-1.3 0-1.97.52-1.97 1.32 0 2.52 7.66.95 7.76 6.01 0 2.37-2.07 4.17-5.44 4.17Zm7.94-17.74c0-1.15.9-2.05 2.15-2.05s2.15.9 2.15 2.05-.92 2.05-2.15 2.05-2.15-.9-2.15-2.05Zm.37 3.69h3.49v13.83h-3.49v-13.83Zm16.63 6.19c0-2.22-1.22-3.42-3.07-3.42s-3.12 1.2-3.12 3.42v7.64h-3.49v-13.83h3.49v1.72a5.18 5.18 0 0 1 4.17-1.92c3.22 0 5.52 2.1 5.52 5.92v8.11h-3.49v-7.64Zm12.85 7.86c-4.02 0-6.94-2.8-6.94-7.14s2.85-7.14 6.94-7.14 6.81 2.72 6.81 6.84c0 .45-.02.9-.1 1.35h-10.11c.17 2.05 1.57 3.19 3.32 3.19 1.5 0 2.32-.75 2.77-1.67h3.77c-.75 2.55-3.04 4.57-6.46 4.57Zm-3.37-8.44H125c-.05-1.82-1.5-2.97-3.29-2.97-1.67 0-2.99 1.07-3.27 2.97Zm18.02 8.44c-3.47 0-5.89-2.02-6.04-4.59h3.52c.12 1.05 1.1 1.85 2.5 1.85s2.12-.62 2.12-1.42c0-2.47-7.81-.9-7.81-5.97 0-2.3 2.05-4.14 5.47-4.14s5.37 1.82 5.57 4.57h-3.34c-.1-1.07-.95-1.8-2.32-1.8-1.3 0-1.97.52-1.97 1.32 0 2.52 7.66.95 7.76 6.01 0 2.37-2.07 4.17-5.44 4.17Zm13.6 0c-3.47 0-5.89-2.02-6.04-4.59h3.52c.12 1.05 1.1 1.85 2.5 1.85s2.12-.62 2.12-1.42c0-2.47-7.81-.9-7.81-5.97 0-2.3 2.05-4.14 5.47-4.14s5.37 1.82 5.57 4.57h-3.34c-.1-1.07-.95-1.8-2.32-1.8-1.3 0-1.97.52-1.97 1.32 0 2.52 7.66.95 7.76 6.01 0 2.37-2.07 4.17-5.44 4.17Zm-95.88 6.26c3.87 0 7.01 2.07 8.19 5.64h-4.02a4.4 4.4 0 0 0-4.19-2.5c-3.04 0-5.22 2.22-5.22 5.77s2.17 5.77 5.22 5.77c1.87 0 3.37-.82 4.19-2.52h4.02c-1.17 3.59-4.32 5.64-8.19 5.64-5.02 0-8.84-3.67-8.84-8.89s3.82-8.91 8.84-8.91Zm11.18-.82h3.49v6.36a5.33 5.33 0 0 1 4.29-1.92c3.12 0 5.39 2.1 5.39 5.92v8.11h-3.49v-7.64c0-2.22-1.22-3.42-3.07-3.42s-3.12 1.2-3.12 3.42v7.64h-3.49V169.5Zm21.91 4.41a5.48 5.48 0 0 1 4.57 2.2v-1.97h3.52v13.83h-3.52v-2.02a5.45 5.45 0 0 1-4.59 2.25c-3.49 0-6.29-2.87-6.29-7.19s2.8-7.09 6.31-7.09Zm.9 3.07c-1.87 0-3.64 1.4-3.64 4.02s1.77 4.12 3.64 4.12 3.67-1.45 3.67-4.07-1.75-4.07-3.67-4.07Zm14.1 10.99h-3.49v-13.83h3.49v2.15a4.8 4.8 0 0 1 4.24-2.35v3.67h-.92c-2.07 0-3.32.8-3.32 3.47v6.89Zm7.14-10.96h-1.65v-2.87h1.65v-3.42h3.52v3.42h3.1v2.87h-3.1v6.69c0 .92.37 1.32 1.47 1.32h1.62v2.95h-2.2c-2.65 0-4.42-1.12-4.42-4.29v-6.66Zm15.17 11.18c-4.02 0-6.94-2.8-6.94-7.14s2.85-7.14 6.94-7.14 6.81 2.72 6.81 6.84c0 .45-.02.9-.1 1.35h-10.11c.17 2.05 1.57 3.19 3.32 3.19 1.5 0 2.32-.75 2.77-1.67h3.77c-.75 2.55-3.04 4.57-6.46 4.57Zm-3.37-8.44h6.56c-.05-1.82-1.5-2.97-3.29-2.97-1.67 0-2.99 1.07-3.27 2.97Zm16.22 8.22h-3.49v-13.83h3.49v2.15a4.8 4.8 0 0 1 4.24-2.35v3.67h-.92c-2.07 0-3.32.8-3.32 3.47v6.89Zm55.43-41.3c-9.21 0-15.53-6.84-15.53-17.73s6.32-17.73 15.53-17.73c5.71 0 10.36 2.63 12.91 7.9h16.5c-3.51-13.34-14.57-21.59-29.24-21.59-8.65 0-16.09 2.94-21.51 8.02a14.1 14.1 0 0 0-6.27-3.03c5.74-1.69 10.04-6.33 10.04-13.51 0-9.37-7.17-15.36-19.24-15.36h-26.67v.17h-16.92v11.43h19.68a18.26 18.26 0 0 1-2.76 5.39c-2.87 3.79-7.17 5.86-12.66 5.86-11.15 0-17.86-6.89-17.86-18.68 0-11.07 6.62-18.14 16.59-18.14 5.81 0 10.16 2.27 12.51 6.53h17.14c-3.36-13.06-14.42-20.85-29.66-20.85-19.04 0-32.37 13.42-32.37 32.46s13.42 32.37 32.46 32.37c5.23 0 9.84-1.06 13.83-2.86v25.58h27.6c1.86 0 3.61-.14 5.23-.41 1.54 16.53 13.85 27.8 30.83 27.8 14.67 0 25.72-8.16 29.24-21.51h-16.5c-2.55 5.27-7.2 7.9-12.91 7.9Zm-32.24-55.22c0 4.05-2.62 6.16-7.35 6.16h-9.46V85.2h9.46c4.72 0 7.35 2.19 7.35 6.25Zm-6.16 29.79h-10.64v-13.08h10.47c4.81 0 7.77 2.44 7.77 6.67s-2.78 6.41-7.6 6.41Zm-93.9 114.33h-8.7l-1.44 4.16h-4.6l7.86-21.88h5.1l7.86 21.88h-4.63l-1.44-4.16Zm-4.35-12.64-3.16 9.14h6.32l-3.16-9.14Zm21.92-.82c4.32 0 7.23 2.25 8.17 6.13h-4.73c-.5-1.47-1.66-2.41-3.47-2.41-2.44 0-4.07 1.85-4.07 5.23s1.63 5.2 4.07 5.2c1.81 0 2.94-.81 3.47-2.38h4.73c-.94 3.69-3.85 6.13-8.17 6.13-5.01 0-8.58-3.51-8.58-8.95s3.57-8.95 8.58-8.95Zm19.68 0c4.32 0 7.23 2.25 8.17 6.13h-4.73c-.5-1.47-1.66-2.41-3.47-2.41-2.44 0-4.07 1.85-4.07 5.23s1.63 5.2 4.07 5.2c1.81 0 2.94-.81 3.47-2.38h4.73c-.94 3.69-3.85 6.13-8.17 6.13-5.01 0-8.58-3.51-8.58-8.95s3.57-8.95 8.58-8.95Zm15.47 17.62h-4.38v-17.34h4.38v2.69a6.02 6.02 0 0 1 5.32-2.94v4.6h-1.16c-2.6 0-4.16 1-4.16 4.35v8.64Zm16.95.28c-5.04 0-8.7-3.51-8.7-8.95s3.57-8.95 8.7-8.95 8.54 3.41 8.54 8.58c0 .56-.03 1.13-.13 1.69h-12.67c.22 2.57 1.97 4.01 4.16 4.01 1.88 0 2.91-.94 3.47-2.1h4.73c-.94 3.19-3.82 5.73-8.11 5.73Zm-4.22-10.58h8.23c-.06-2.28-1.88-3.72-4.13-3.72-2.1 0-3.76 1.35-4.1 3.72Zm23.65-7.32a7.09 7.09 0 0 1 5.66 2.69v-8.23h4.44v23.16h-4.44v-2.57c-1.03 1.6-2.97 2.85-5.7 2.85-4.41 0-7.92-3.6-7.92-9.01s3.51-8.89 7.95-8.89Zm1.1 3.85c-2.35 0-4.57 1.75-4.57 5.04s2.22 5.16 4.57 5.16 4.6-1.81 4.6-5.1-2.19-5.1-4.6-5.1Zm11.93-8.2c0-1.44 1.13-2.57 2.69-2.57s2.69 1.13 2.69 2.57-1.16 2.57-2.69 2.57-2.69-1.13-2.69-2.57Zm.47 4.63h4.38v17.34h-4.38v-17.34Zm9.91 3.6H171v-3.6h2.07v-4.29h4.41v4.29h3.88v3.6h-3.88v8.39c0 1.16.47 1.66 1.85 1.66h2.03v3.69h-2.75c-3.32 0-5.54-1.41-5.54-5.38v-8.36Zm19.92 14.02c-5.04 0-8.7-3.51-8.7-8.95s3.57-8.95 8.7-8.95 8.54 3.41 8.54 8.58c0 .56-.03 1.13-.13 1.69h-12.67c.22 2.57 1.97 4.01 4.16 4.01 1.88 0 2.91-.94 3.47-2.1h4.73c-.94 3.19-3.82 5.73-8.11 5.73Zm-4.23-10.58h8.23c-.06-2.28-1.88-3.72-4.13-3.72-2.1 0-3.76 1.35-4.1 3.72Zm23.65-7.32a7.09 7.09 0 0 1 5.66 2.69v-8.23h4.44v23.16h-4.44v-2.57c-1.03 1.6-2.97 2.85-5.7 2.85-4.41 0-7.92-3.6-7.92-9.01s3.51-8.89 7.95-8.89Zm1.1 3.85c-2.35 0-4.57 1.75-4.57 5.04s2.22 5.16 4.57 5.16 4.6-1.81 4.6-5.1-2.19-5.1-4.6-5.1Z" data-name="fullLogo"/>
      <a xlink:href="0">
        <path fill="#fff" d="M46.1 202.3h176.17v2H46.1z" data-name="fullLogo"/>
      </a>
    </symbol>
  </defs>
</svg>
