<svg aria-hidden="true" style="position: absolute; width: 0; height: 0; overflow: hidden;" version="1.1" xmlns="http://www.w3.org/2000/svg" xmlns:xlink="http://www.w3.org/1999/xlink">
  <defs>
    <symbol id="oak" viewBox="0 0 100 100">
      <path fill="#597a36" stroke-width="0" d="M62.7 60.99c-3.73 0-7.36-1.25-10.31-3.53a23 23 0 0 1-31.97-21.14A23 23 0 0 1 49.6 14.18a16.9 16.9 0 0 1 25.36 18.34 16.69 16.69 0 0 1 4.61 11.58A16.9 16.9 0 0 1 62.7 61Zm-9.84-7.06.75.64a13.86 13.86 0 0 0 18.63-20.51l-.67-.64.27-.89A13.9 13.9 0 0 0 58.57 14.6c-2.83 0-5.55.85-7.88 2.46l-.6.42-.7-.22a19.98 19.98 0 1 0 2.58 37.1l.9-.43Z"/>
      <path d="M51.5 91.15a1.5 1.5 0 0 1-1.5-1.5V48.1l-10.14-1.14a1.5 1.5 0 0 1 .34-2.98l11.46 1.29a1.5 1.5 0 0 1 1.34 1.5v42.88c0 .83-.68 1.5-1.5 1.5Z"/>
      <path d="M51.5 55.25a1.5 1.5 0 0 1-.66-2.85l13.14-6.39a1.5 1.5 0 0 1 1.3 2.7l-13.13 6.4c-.21.1-.43.14-.65.14Zm0-6.99a1.5 1.5 0 0 1-1.5-1.29l-1.5-10.46a1.5 1.5 0 0 1 2.98-.43l1.5 10.47a1.5 1.5 0 0 1-1.5 1.71Z"/>
    </symbol>    
    <symbol id="pine" viewBox="0 0 100 100">
      <path fill="#597a36" stroke-width="0" d="M68.9 60.5H31.1a7.77 7.77 0 0 1-6.73-3.81 7.78 7.78 0 0 1-.18-7.73l18.9-35.23C44.5 11.14 47.06 9.6 50 9.6s5.52 1.54 6.9 4.13l18.9 35.23a7.78 7.78 0 0 1-.17 7.73 7.77 7.77 0 0 1-6.73 3.81ZM50 12.6c-1.81 0-3.4.95-4.26 2.55l-18.9 35.23a4.8 4.8 0 0 0 .1 4.77 4.8 4.8 0 0 0 4.16 2.35h37.8a4.8 4.8 0 0 0 4.15-2.35 4.8 4.8 0 0 0 .11-4.77l-18.9-35.23A4.77 4.77 0 0 0 50 12.6Z"/>
      <path d="M50 90.4a1.5 1.5 0 0 1-1.5-1.5V49.54L37.86 44.7a1.5 1.5 0 0 1 1.24-2.73l12.4 5.63v41.3c0 .82-.67 1.5-1.5 1.5Z"/>
      <path d="M50 57.1a1.5 1.5 0 0 1-.66-2.85l13.2-6.42a1.5 1.5 0 0 1 1.31 2.7l-13.2 6.41c-.2.1-.43.15-.65.15Zm0-7.03a1.5 1.5 0 0 1-1.34-2.16l4.15-8.44a1.5 1.5 0 0 1 2.69 1.32l-4.15 8.44c-.26.53-.8.84-1.35.84Z"/>
    </symbol>
  </defs>
</svg>
