<svg aria-hidden="true" style="position: absolute; width: 0; height: 0; overflow: hidden;" version="1.1" xmlns="http://www.w3.org/2000/svg" xmlns:xlink="http://www.w3.org/1999/xlink">
  <defs>
    <symbol id="tree1" viewBox="0 0 100 100">
      <path fill="#5a7b35" stroke-width="0" d="M68.903,62.504H31.097c-2.782,0-5.296-1.425-6.725-3.812-1.429-2.388-1.497-5.278-.182-7.73L43.094,15.733c1.389-2.587,3.97-4.132,6.906-4.132s5.518,1.544,6.906,4.132l18.902,35.228c1.315,2.453,1.248,5.342-.181,7.73-1.429,2.388-3.943,3.813-6.726,3.813ZM50,14.601c-1.812,0-3.405.953-4.262,2.55h0s-18.903,35.229-18.903,35.229c-.812,1.514-.77,3.297.112,4.771.882,1.473,2.434,2.353,4.15,2.353h37.806c1.718,0,3.27-.88,4.151-2.354.882-1.474.924-3.258.111-4.771l-18.902-35.228c-.857-1.597-2.45-2.55-4.263-2.55Z"/>
      <path fill="#425366" stroke-width="0" d="M50,91.151c-.828,0-1.5-.671-1.5-1.5v-38.11l-10.644-4.829c-.754-.343-1.088-1.231-.746-1.986.342-.755,1.23-1.088,1.986-.747l12.403,5.628v40.044c0,.829-.672,1.5-1.5,1.5Z"/>
      <path fill="#425366" stroke-width="0" d="M50.001,59.097c-.556,0-1.09-.311-1.35-.844-.362-.745-.053-1.643.692-2.005l13.199-6.419c.745-.36,1.643-.053,2.005.693.362.745.053,1.643-.692,2.005l-13.199,6.419c-.212.103-.435.151-.655.151Z"/>
      <path fill="#425366" stroke-width="0" d="M49.999,52.075c-.223,0-.448-.05-.661-.155-.743-.366-1.05-1.265-.684-2.008l4.154-8.442c.366-.743,1.267-1.049,2.008-.684.743.366,1.05,1.265.684,2.008l-4.154,8.442c-.261.53-.793.838-1.347.838Z"/>
    </symbol>
    <symbol id="tree2" viewBox="0 0 100 100">
      <path fill="#5a7b35" stroke-width="0" d="M62.7,60.989c-3.733,0-7.357-1.248-10.31-3.532-2.845,1.214-5.866,1.83-8.994,1.83-12.667,0-22.972-10.305-22.972-22.972s10.305-22.972,22.972-22.972c2.104,0,4.187.285,6.2.849,2.692-1.697,5.779-2.591,8.976-2.591,9.305,0,16.874,7.57,16.874,16.875,0,1.368-.166,2.728-.494,4.054,2.988,3.147,4.623,7.227,4.623,11.584,0,9.305-7.57,16.875-16.875,16.875ZM52.864,53.929l.742.646c2.53,2.202,5.76,3.414,9.094,3.414,7.65,0,13.875-6.224,13.875-13.875,0-3.831-1.539-7.401-4.333-10.054l-.674-.639.271-.887c.402-1.318.606-2.683.606-4.059,0-7.651-6.224-13.875-13.874-13.875-2.827,0-5.552.851-7.879,2.461l-.604.417-.699-.22c-1.936-.608-3.952-.917-5.994-.917-11.013,0-19.972,8.959-19.972,19.972s8.959,19.972,19.972,19.972c3.001,0,5.888-.65,8.58-1.934l.888-.423Z"/>
      <path fill="#425366" stroke-width="0" d="M51.496,91.151c-.828,0-1.5-.671-1.5-1.5v-41.549l-10.137-1.141c-.823-.093-1.415-.835-1.322-1.659.092-.824.828-1.415,1.658-1.323l11.469,1.291c.759.085,1.332.727,1.332,1.491v42.889c0,.829-.672,1.5-1.5,1.5Z"/>
      <path fill="#425366" stroke-width="0" d="M51.497,55.252c-.556,0-1.09-.311-1.35-.844-.362-.745-.053-1.643.692-2.005l13.137-6.389c.746-.36,1.642-.053,2.005.693.362.745.053,1.643-.692,2.005l-13.137,6.389c-.212.103-.435.151-.655.151Z"/>
      <path fill="#425366" stroke-width="0" d="M51.494,48.262c-.734,0-1.376-.54-1.483-1.288l-1.496-10.467c-.117-.82.453-1.58,1.273-1.697.818-.118,1.579.453,1.697,1.272l1.496,10.467c.117.82-.453,1.58-1.273,1.697-.071.01-.144.015-.214.015Z"/>
    </symbol>
    <symbol id="tree3" viewBox="0 0 100 100">
      <path fill="#5a7b35" stroke-width="0" d="M50.002,64.738l-20.669-7.8c-2.35-.894-4.084-3.438-4.641-6.809-.542-3.206.093-6.505,1.697-8.819l18.891-27.152c1.225-1.767,2.87-2.734,4.642-2.734h.226c1.699,0,3.343.967,4.575,2.732l18.881,27.152c1.603,2.296,2.242,5.594,1.708,8.821v.005c-.57,3.367-2.303,5.91-4.634,6.801l-20.676,7.803ZM49.995,14.423c-.829,0-1.603.512-2.25,1.445l-18.891,27.152c-1.167,1.684-1.617,4.157-1.202,6.614.376,2.275,1.428,3.997,2.744,4.498l19.606,7.398,19.61-7.4c1.303-.499,2.355-2.221,2.74-4.494.408-2.472-.044-4.944-1.21-6.614l-18.882-27.152c-.663-.951-1.433-1.436-2.224-1.447-.015,0-.029,0-.043,0Z"/>
      <path fill="#425366" stroke-width="0" d="M50.295,57.342c-.672,0-1.284-.455-1.454-1.137-.201-.804.287-1.618,1.091-1.819l6.651-1.663c.807-.203,1.619.288,1.819,1.091.201.804-.287,1.618-1.091,1.819l-6.651,1.663c-.122.031-.245.045-.365.045Z"/>
      <path fill="#425366" stroke-width="0" d="M50.296,91.151c-.828,0-1.5-.671-1.5-1.5v-37.094l-10.663-4.846c-.754-.343-1.087-1.232-.744-1.986.342-.753,1.228-1.087,1.986-.745l11.542,5.246c.535.244.879.777.879,1.366v38.06c0,.829-.672,1.5-1.5,1.5Z"/>
      <path fill="#425366" stroke-width="0" d="M50.295,53.092c-.219,0-.441-.048-.651-.15-.746-.36-1.059-1.257-.698-2.003l4.097-8.479c.359-.745,1.257-1.059,2.003-.698.746.36,1.059,1.257.698,2.003l-4.097,8.479c-.259.535-.794.848-1.352.848Z"/>
    </symbol>
    <symbol id="tree4" viewBox="0 0 100 100">
      <path fill="#5a7b35" stroke-width="0" d="M50.005,68.823h-.029c-5.166-.005-9.234-1.599-12.094-4.734-3.277-3.595-4.936-9.247-4.927-16.796.017-15.721,15.245-35.782,15.894-36.628l1.193-1.558,1.189,1.561c.646.848,15.83,20.943,15.813,36.664h0c-.011,9.807-2.979,21.493-17.04,21.493ZM50.036,14.129c-3.596,5.08-14.067,20.926-14.081,33.167-.008,6.777,1.387,11.747,4.144,14.771,2.3,2.522,5.532,3.751,9.881,3.756h.024c9.435,0,14.026-6.05,14.041-18.497.014-12.24-10.425-28.11-14.009-33.197Z"/>
      <path fill="#425366" d="M50.054,55.256c-.539,0-1.06-.292-1.328-.802-.386-.733-.104-1.64.629-2.026l5.851-3.078c.732-.386,1.64-.104,2.025.629.386.733.104,1.64-.629,2.026l-5.851,3.078c-.223.117-.462.173-.697.173Z"/>
      <path fill="#425366" d="M50.053,91.151c-.828,0-1.5-.671-1.5-1.5v-41.981l-5.077-2.307c-.754-.343-1.087-1.232-.744-1.986.342-.753,1.228-1.087,1.986-.745l5.956,2.707c.535.244.879.777.879,1.366v42.947c0,.829-.672,1.5-1.5,1.5Z"/>
      <path fill="#425366" d="M50.053,48.205c-.163,0-.329-.027-.492-.083-.782-.271-1.196-1.126-.925-1.909l3.229-9.306c.271-.783,1.124-1.199,1.909-.925.782.271,1.196,1.126.925,1.909l-3.229,9.306c-.215.62-.796,1.009-1.417,1.009Z"/>
    </symbol>
    <symbol id="tree5" viewBox="0 0 100 100">
      <path fill="#5a7b35" stroke-width="0" d="M50,65.467c-14.93,0-27.076-12.146-27.076-27.076s12.146-27.076,27.076-27.076,27.075,12.146,27.075,27.076-12.146,27.076-27.075,27.076ZM50,14.315c-13.275,0-24.076,10.8-24.076,24.076s10.801,24.076,24.076,24.076,24.075-10.8,24.075-24.076-10.8-24.076-24.075-24.076Z"/>
      <path fill="#425366" d="M50.054,55.256c-.558,0-1.093-.312-1.352-.847-.36-.746-.049-1.643.697-2.003l13.14-6.356c.748-.363,1.644-.049,2.004.697.36.746.049,1.643-.697,2.003l-13.14,6.356c-.211.102-.434.15-.652.15Z"/>
      <path fill="#425366" d="M50.053,91.151c-.828,0-1.5-.671-1.5-1.5v-41.605l-9.963-1.112c-.823-.092-1.417-.834-1.325-1.657s.831-1.417,1.657-1.324l11.297,1.261c.76.085,1.334.727,1.334,1.491v42.947c0,.829-.672,1.5-1.5,1.5Z"/>
      <path fill="#425366" d="M50.051,48.205c-.74,0-1.385-.548-1.485-1.302l-1.388-10.434c-.108-.821.469-1.575,1.289-1.685.817-.11,1.576.467,1.686,1.289l1.388,10.434c.108.821-.469,1.575-1.289,1.685-.067.009-.134.013-.2.013Z"/>
    </symbol>
    <symbol id="tree6" viewBox="0 0 100 100">
      <path fill="#5a7b35" stroke-width="0" d="M44.331,65.999c-.396,0-.794-.02-1.195-.061-5.615-.569-10.009-5.107-10.525-10.609-2.728-.514-5.152-1.953-6.922-4.122-1.987-2.436-2.908-5.496-2.591-8.618.476-4.698,3.763-8.597,8.094-10.012-1.852-2.36-2.738-5.347-2.427-8.421.316-3.122,1.831-5.936,4.267-7.923,2.437-1.987,5.499-2.908,8.619-2.591,2.606.264,5.025,1.388,6.896,3.16,2.386-3.533,6.604-5.589,10.955-5.151,3.122.316,5.936,1.832,7.923,4.267,1.987,2.436,2.907,5.497,2.591,8.619-.015.145-.031.289-.051.432,4.589,2.027,7.456,6.842,6.939,11.936-.32,3.164-1.881,6.019-4.33,7.982.239,1.157.298,2.346.177,3.548-.316,3.122-1.832,5.936-4.268,7.924-2.436,1.987-5.5,2.906-8.618,2.591-1.517-.154-2.97-.593-4.294-1.292-1.514,4.922-6.062,8.341-11.24,8.341ZM40.451,16.582c-2.009,0-3.942.687-5.523,1.976-1.814,1.481-2.943,3.577-3.179,5.902-.31,3.054.973,5.995,3.429,7.867.501.381.71,1.035.523,1.637s-.729,1.022-1.357,1.054c-4.277.215-7.829,3.6-8.262,7.874-.235,2.325.45,4.604,1.931,6.419,1.48,1.814,3.576,2.944,5.901,3.18.056.005.102.012.148.012.403,0,.791.165,1.072.453.281.289.437.679.428,1.082-.107,4.541,3.353,8.458,7.876,8.916,4.812.49,9.121-3.027,9.608-7.832.056-.55.414-1.07.926-1.281.51-.208,1.101-.167,1.528.185,1.328,1.093,2.941,1.763,4.667,1.938,2.328.236,4.605-.45,6.419-1.931,1.815-1.48,2.944-3.577,3.18-5.901.118-1.169.007-2.32-.33-3.419-.194-.636.053-1.324.607-1.69,2.197-1.453,3.61-3.793,3.876-6.42.419-4.134-2.153-8.021-6.115-9.243-.68-.21-1.118-.868-1.051-1.576.008-.082.023-.173.044-.253.11-.414.188-.85.233-1.294.235-2.327-.45-4.606-1.931-6.421-1.48-1.815-3.576-2.944-5.901-3.18-3.812-.388-7.51,1.815-8.979,5.354-.21.504-.677.855-1.22.916-.554.062-1.076-.18-1.391-.625-1.462-2.067-3.744-3.399-6.263-3.655-.3-.03-.6-.045-.896-.045Z"/>
      <path fill="#425366" d="M54.592,52.959c-.352,0-.705-.123-.99-.374-.622-.548-.682-1.496-.135-2.117l6.569-7.461c.548-.622,1.494-.682,2.117-.135.622.548.682,1.496.135,2.117l-6.569,7.461c-.297.337-.711.509-1.127.509Z"/>
      <path fill="#425366" d="M54.593,91.151c-.828,0-1.5-.671-1.5-1.5v-37.26l-11.345-5.603c-.743-.367-1.048-1.266-.681-2.009.365-.743,1.266-1.047,2.009-.681l12.181,6.015c.512.252.836.774.836,1.345v38.192c0,.829-.672,1.5-1.5,1.5Z"/>
      <path fill="#425366" d="M49.029,49.789c-.623,0-1.205-.392-1.419-1.014l-2.331-6.8c-.269-.784.148-1.637.933-1.905.784-.27,1.636.149,1.905.933l2.331,6.8c.269.784-.148,1.637-.933,1.905-.161.055-.325.082-.486.082Z"/>
    </symbol>
  </defs>
</svg>
