<svg xmlns="http://www.w3.org/2000/svg" id="Layer_1" viewBox="0 0 500 500">
  <defs>
    <style>
      .cls-1{fill:#f39200;stroke-width:0}
    </style>
  </defs>
  <circle cx="373.43" cy="250" r="55.13" class="cls-1"/>
  <path d="M290.32 410.07c-12.4 0-24.8-4.74-34.25-14.2-80.44-80.43-80.44-211.3 0-291.74a48.45 48.45 0 0 1 68.51 68.52c-42.65 42.65-42.64 112.05 0 154.71a48.44 48.44 0 0 1-34.26 82.7Z" class="cls-1"/>
  <path d="M202.4 498a48.3 48.3 0 0 1-34.26-14.19c-128.92-128.92-128.92-338.7 0-467.62a48.44 48.44 0 1 1 68.5 68.51c-91.13 91.15-91.13 239.45 0 330.59A48.45 48.45 0 0 1 202.4 498Z" class="cls-1"/>
</svg>
