<svg xmlns="http://www.w3.org/2000/svg" xml:space="preserve" viewBox="0 0 500 500">
  <path d="M196.02 223.36a60.22 60.22 0 1 1 108.03 53.28 60.22 60.22 0 0 1-108.03-53.28zm203.54 66.26a154 154 0 0 0-3.4-90.4 36.33 36.33 0 0 0-45.97-22.45l-.28.1a36.33 36.33 0 0 0-22.36 46.25c5.37 15.44 6 32 1.78 47.9-11.6 43.73-56.6 69.85-100.31 58.27a81.49 81.49 0 0 1-49.91-38.08 81.46 81.46 0 0 1-8.36-62.22c11.59-43.72 56.56-69.86 100.3-58.28a36.33 36.33 0 0 0 18.61-70.23c-82.44-21.86-167.3 27.45-189.15 109.9a153.63 153.63 0 0 0 15.78 117.33 153.66 153.66 0 0 0 94.12 71.82 153.77 153.77 0 0 0 89.1-3.02c47.46-16.12 86.28-54.91 100.05-106.89zm-24.98 174.76c57.27-33.27 98.15-86.85 115.11-150.86a247.45 247.45 0 0 0-2.39-135.55 36.33 36.33 0 0 0-45.33-24.18c-19.27 5.74-30.02 26.14-24.17 45.34a174.81 174.81 0 0 1 1.66 95.78 174.11 174.11 0 0 1-81.38 106.65 174.16 174.16 0 0 1-132.95 17.87c-45.25-12-83.13-40.9-106.65-81.38s-29.86-87.7-17.87-132.96A174.1 174.1 0 0 1 162 98.44a174.22 174.22 0 0 1 132.95-17.86 36.33 36.33 0 0 0 18.61-70.24c-64-16.96-130.79-8-188.06 25.28C68.22 68.9 27.34 122.47 10.38 186.48s-8 130.8 25.28 188.07c33.27 57.26 86.84 98.14 150.86 115.1 47.74 12.66 97.02 10.89 142.75-4.64a250.28 250.28 0 0 0 45.31-20.63z"/>
</svg>
