<svg version="1" xmlns="http://www.w3.org/2000/svg" width="933.333" height="933.333" viewBox="0 0 700.000000 700.000000"><path d="M189.3 41.1c-17.7 3.1-32.5 14.8-41 32.2-2.4 4.8-8.5 19.4-13.7 32.5C91 215.6 70 318 74.9 397c4.5 72.4 24.3 143.2 59.6 214 16 32 21.3 39.9 31.9 47.5 29.4 20.9 69.4 9.3 83.4-24.2 1.3-2.9 2.8-8.9 3.4-13.3 1.7-12-.6-22.4-7.8-35.5C201.9 506.2 180.8 426 185 356c3.9-66.1 24.4-144.8 59-226.7 10.5-25.1 11.8-33.4 7.4-49.3-4.9-17.5-19.5-32.2-37.2-37.4-6.9-2-18.3-2.7-24.9-1.5zM371.4 163c-11.7 1.7-23.4 7.7-30.6 15.7-10.4 11.7-29.8 51.4-41 84.3-21.7 63.5-22.1 116.6-1.6 180 10.9 33.6 31.6 77 42.5 89.1 9.2 10.2 23 16.1 37.8 16.2 28.2 0 50.6-22.2 50.8-50.3.1-11.2-2-17.8-10-32.2-8.8-15.8-18.2-37.4-23.6-54.3-13.5-42.2-13.3-71.3.8-114 6.1-18.5 13.6-35.7 22.8-52.3 8-14.4 10.1-21 10-32.2 0-9.3-2.4-17.9-7.1-25.9-3.3-5.7-11.6-14-17.3-17.3-9.6-5.7-23-8.4-33.5-6.8zM538 277.5c-28.5 6.1-50.2 25.4-59.6 53-3.9 11.5-4.6 30.4-1.5 42.5 7.4 29.3 28.8 50.7 58 58.1 11.9 3 31 2.4 42.6-1.4 34-11.2 56.1-43.2 54.2-78.7-.7-12.6-2.5-19.8-7.6-30.5C614.7 300.8 596 285 575 279c-9.6-2.8-27.8-3.5-37-1.5z"/></svg>