<?xml version="1.0" standalone="no"?>
<!DOCTYPE svg PUBLIC "-//W3C//DTD SVG 20010904//EN"
 "http://www.w3.org/TR/2001/REC-SVG-20010904/DTD/svg10.dtd">
<svg version="1.0" xmlns="http://www.w3.org/2000/svg"
 width="700.000000pt" height="700.000000pt" viewBox="0 0 700.000000 700.000000"
 preserveAspectRatio="xMidYMid meet">
<metadata>
Created by potrace 1.14, written by Peter Selinger 2001-2017
</metadata>
<g transform="translate(0.000000,700.000000) scale(0.100000,-0.100000)"
fill="#000000" stroke="none">
<path d="M2683 6955 c-144 -32 -256 -105 -407 -263 -234 -244 -435 -508 -616
-807 -70 -114 -210 -382 -257 -490 -123 -283 -211 -543 -279 -825 -13 -58 -73
-374 -78 -415 -14 -123 -17 -142 -21 -171 -20 -140 -27 -647 -12 -834 11 -127
16 -179 22 -215 3 -16 7 -52 10 -80 3 -27 10 -72 15 -100 5 -27 12 -66 15 -85
10 -70 80 -373 99 -434 7 -23 26 -81 41 -131 32 -106 117 -337 152 -415 13
-30 36 -82 51 -115 197 -449 581 -1003 922 -1333 153 -148 301 -211 497 -210
304 1 558 192 649 488 26 88 28 260 3 351 -39 142 -84 218 -204 344 -42 44
-95 102 -118 129 -23 27 -47 54 -52 60 -6 6 -32 38 -58 71 -26 33 -52 66 -58
73 -6 7 -48 69 -94 137 -359 536 -549 1169 -548 1825 0 90 11 298 17 340 3 14
10 66 16 115 7 50 20 131 31 180 10 50 20 101 23 115 14 75 103 356 141 445 7
17 23 55 35 85 93 227 272 529 438 735 92 114 101 125 225 258 126 135 180
229 214 372 2 11 7 63 10 115 13 235 -101 456 -306 591 -106 70 -208 101 -346
105 -69 2 -133 -2 -172 -11z"/>
<path d="M3940 5724 c-163 -31 -248 -80 -395 -228 -287 -289 -524 -680 -658
-1088 -35 -103 -80 -276 -92 -348 -3 -19 -8 -42 -10 -50 -6 -23 -16 -95 -30
-220 -13 -114 -13 -512 0 -595 3 -22 8 -53 10 -70 31 -241 108 -529 200 -745
38 -90 141 -296 165 -330 11 -15 20 -31 20 -35 0 -12 159 -240 226 -324 92
-114 228 -256 289 -301 120 -88 247 -128 405 -128 184 0 342 67 476 202 201
204 253 520 127 771 -33 64 -71 120 -118 170 -85 92 -205 237 -205 249 0 3
-13 25 -30 49 -36 54 -109 206 -138 292 -101 287 -112 604 -31 905 67 253 184
459 375 663 113 121 168 222 197 365 17 83 16 230 -3 288 -63 194 -144 309
-285 406 -138 94 -329 133 -495 102z"/>
<path d="M5105 4263 c-43 -6 -182 -51 -224 -73 -350 -180 -511 -594 -374 -960
85 -227 287 -413 520 -476 147 -39 366 -25 491 32 29 13 55 24 58 24 8 0 110
67 140 92 145 123 238 282 273 468 16 86 7 254 -19 341 -82 276 -296 477 -577
543 -57 13 -223 18 -288 9z"/>
</g>
</svg>
