<svg xmlns="http://www.w3.org/2000/svg" viewBox="0 0 630.51 633.84"><title>tree13</title><path d="M294.91,48.18c-17.33-18.66-39.27-14.92-60-8-28.27,11.53-31.26,51.13-8.64,62.65-22.62-2.3-38-1.46-54.91,14.68-9.42,6.91-23.15,24.67-21.57,41.64,1.84,19.84,14,28.22,21.57,44.36,9.42,25.35-27.23,50.15-6.49,70.89,18.85,23.05,50.88,18.44,69.73-2.3,3.77,25.36,20.73,36.88,39.58,39.19,20.73,4.61,30.15-9.22,45.23-18.44,7.54,13.83,32.09,17.58,41.51,10.67,18.85-13.83,13.14-29.11,33.88-10.67,13.19,9.22,24.5,18.44,39.58,18.44,20.73,0,35.88-4.44,49-20.74,9.42,23,47.12,41.49,69.73,39.19,15.08-2.31,34.27-7.41,41.81-23.55,5.65-9.22,7.19-31.77-7.89-36.38,28.27,2.3,45.23-36.88,43.35-64.54-1.88-36.88-33.92-53-54.66-71.46,49-46.1-18.8-112.28-67.85-71.46-3-28.5-30.16-43.8-50.89-50.71-22.62-6.92-39.58,20.75-56.54,13.83C391,20.85,390.08-8.49,345.78,2.41,326.94,7,298.67,25.13,294.91,48.18Z" fill="#a9ce34"/><path d="M224.68,281.91c14.2-3.35,31,0,45.18,5,19.36,8.38,12.91,28.49-2.58,36.87,15.49-1.68,31,6.7,42.59,18.43,6.45,5,37,37.27,13,53.93,10.67,16.67,10.19,36.56-4,51.64-12.91,16.76-34.85,13.41-47.76-1.68-2.58,18.44-14.2,26.81-27.11,28.49-14.2,3.35-20.65-6.7-31-13.41-5.16,10.06-18.07,6.71-24.52,1.68-12.91-10.05-12.91-15.08-27.11-1.68-9,6.71-16.78,13.41-27.1,13.41-14.2,0-21.94-10.05-33.56-15.08-6.45,16.76-29.71,21-45.2,19.29-10.33-1.68-43.33-15.33-25.79-34.37-19.36,1.67-31-26.81-29.69-46.92C1.39,370.73,23.33,359,37.53,345.59,4,312.08,62.05,258.45,84,293.65c12.91-10.05,20.65-31.84,34.85-36.87,15.49-5,27.1,15.08,38.72,10.05,6.45-3.35,10.33-13.41,19.36-15.08,5.16-1.68,12.91-3.35,18.07-1.68C207.9,253.42,222.1,265.16,224.68,281.91Z" fill="#a9ce34"/><path d="M464.12,405.76c7-1.55,15.35,0,22.39,2.32,9.59,3.87,6.4,13.16-1.28,17,7.67-.77,15.35,3.1,21.11,8.51,3.2,2.32,7.67,6.19,9.59,10.06,2.56,6.19.64,7.74-1.92,13.16-3.2,8.51,3.84,18.57-3.2,25.54-6.4,7.74-17.27,6.19-23.66-.77-1.28,8.51-7,12.38-13.43,13.16-7,1.55-10.23-3.1-15.35-6.19-2.56,4.64-9,3.1-12.15.77-6.4-4.64-6.4-7-13.43-.77-4.48,3.1-8.31,6.19-13.43,6.19-7,0-10.87-4.64-16.63-7-3.2,7.74-16,13.93-23.66,13.16a15.84,15.84,0,0,1-12.15-9.29c-1.92-3.1-4.48-9.29.64-10.84-9.59.78-15.35-12.38-14.71-21.67.64-12.38,11.51-17.8,18.55-24-16.63-15.48,12.15-40.24,23-24,6.4-4.64,10.23-14.71,17.27-17,7.68-2.32,13.43,7,19.19,4.64,3.2-1.55,5.12-6.19,9.59-7,2.56-.78,6.4-1.55,9-.78C455.81,392.61,462.85,398,464.12,405.76Z" fill="#a9ce34"/><path d="M318,519.76C315.92,455.85,236.61,380.22,180,359c-23.67-13.33,7.85-13.62,17.16-11.25,29.49,7.5,75.6,52.71,93.09,62.64,3.54-6.53-12.26-54.48-5.83-58.73,11.5-7.61,14.07,31.08,19.51,45.78,5,13.54,18.54,36.65,30,37.46,11-40.48,10.28-110.91,2.21-165.26-5.68-38.24-14.85-76-33.86-111.07-4.82-7.43,10.17-1.3,13.61,3,16.79,21,20.91,69.21,29.54,86.45,3.54-9.79,42-56.82,45.13-51.41,3,5.16-35.55,48.41-37.16,61.67-3.51,29,.91,79.07,8.42,108.44,14.35-57.89,93.31-166.8,122.54-219.07,6.24,5.47-61.12,123.74-69,143.63,15.93-9.79,44.25-21.22,61.94-27.75,16.77-4.24-8.24,7.82-17.25,13.32-15.37,9.38-36.45,19.79-44.85,24.49-22.5,12.6-23.72,43.29-31.7,66.65-14,40.95-24.78,84.87-23,127.31,15.93-6.53,28.32-24.48,40.71-37.54,11.21-10.2,14.93,5.73,3,16-17.61,15.19-28.62,47-31.31,65.58-3.54,27.75,4.42,58.76,4.42,86.5-23,9.79-51.19,10.87-73.45,1.63C314.49,594.84,318,554,318,519.76Z" fill="#352926"/></svg>