<svg xmlns="http://www.w3.org/2000/svg" viewBox="0 0 500 500">
  <path fill="#597a36" d="M374.58 464.38c57.27-33.27 98.15-86.85 115.11-150.86a247.45 247.45 0 0 0-2.39-135.55 36.33 36.33 0 0 0-45.33-24.18c-19.27 5.74-30.02 26.14-24.17 45.34a174.81 174.81 0 0 1 1.66 95.78 174.11 174.11 0 0 1-81.38 106.64 174.16 174.16 0 0 1-132.95 17.88c-45.25-12-83.13-40.9-106.65-81.38s-29.86-87.7-17.87-132.96a174.1 174.1 0 0 1 81.37-106.65 174.22 174.22 0 0 1 132.96-17.86 36.33 36.33 0 0 0 18.61-70.24c-64-16.96-130.79-8-188.06 25.28A246.29 246.29 0 0 0 10.38 186.48c-16.96 64.01-8 130.8 25.28 188.07 33.27 57.26 86.84 98.14 150.86 115.1 47.74 12.66 97.02 10.89 142.75-4.64a250.21 250.21 0 0 0 45.31-20.63Z"/>
</svg>
