<?xml version="1.0" encoding="UTF-8"?>
<svg id="Layer_1" data-name="Layer 1" xmlns="http://www.w3.org/2000/svg" xmlns:xlink="http://www.w3.org/1999/xlink" viewBox="0 0 267.86 285.35">
  <a xlink:href="99.4195">
    <path id="fullLogo" d="m238.04,25H29.82c-2.66,0-4.82,2.36-4.82,5.27v224.8c0,2.91,2.16,5.27,4.82,5.27h208.22c2.66,0,4.82-2.36,4.82-5.27V30.27c0-2.91-2.16-5.27-4.82-5.27Z"/>
  </a>
  <g>
    <g>
      <path id="fullLogo-2" data-name="fullLogo" d="m62.34,127.7h-4.02c-.8-1.47-2.25-2.25-4.09-2.25-3.12,0-5.29,2.22-5.29,5.69s2.2,5.74,5.44,5.74c2.7,0,4.42-1.55,4.94-4.02h-5.99v-2.67h9.43v3.04c-.7,3.54-3.87,6.79-8.51,6.79-5.07,0-8.91-3.67-8.91-8.89s3.84-8.91,8.89-8.91c3.89,0,6.99,1.97,8.11,5.47Z" fill="#fff"/>
      <path id="fullLogo-3" data-name="fullLogo" d="m71.5,140.1c-3.99,0-7.01-2.8-7.01-7.14s3.12-7.14,7.11-7.14,7.11,2.77,7.11,7.14-3.19,7.14-7.21,7.14Zm0-3.04c1.85,0,3.62-1.35,3.62-4.09s-1.72-4.09-3.57-4.09-3.52,1.32-3.52,4.09,1.6,4.09,3.47,4.09Z" fill="#fff"/>
      <path id="fullLogo-4" data-name="fullLogo" d="m87.42,140.1c-3.99,0-7.01-2.8-7.01-7.14s3.12-7.14,7.11-7.14,7.11,2.77,7.11,7.14-3.19,7.14-7.21,7.14Zm0-3.04c1.85,0,3.62-1.35,3.62-4.09s-1.72-4.09-3.57-4.09-3.52,1.32-3.52,4.09,1.6,4.09,3.47,4.09Z" fill="#fff"/>
      <path id="fullLogo-5" data-name="fullLogo" d="m102.64,125.82c1.82,0,3.57.85,4.52,2.15v-6.56h3.54v18.47h-3.54v-2.05c-.82,1.27-2.37,2.27-4.54,2.27-3.52,0-6.31-2.87-6.31-7.19s2.8-7.09,6.34-7.09Zm.87,3.07c-1.87,0-3.64,1.4-3.64,4.02s1.77,4.12,3.64,4.12,3.67-1.45,3.67-4.07-1.75-4.07-3.67-4.07Z" fill="#fff"/>
      <path id="fullLogo-6" data-name="fullLogo" d="m53.7,164h-7.51v-17.42h7.19c3.64,0,5.67,1.9,5.67,4.49,0,2.12-1.27,3.44-2.97,3.99,1.97.35,3.37,2.17,3.37,4.22,0,2.77-2.12,4.72-5.74,4.72Zm-.82-14.6h-3.19v4.37h3.19c1.65,0,2.6-.75,2.6-2.17s-.95-2.2-2.6-2.2Zm.25,7.06h-3.44v4.69h3.52c1.7,0,2.7-.82,2.7-2.3s-1.07-2.4-2.77-2.4Z" fill="#fff"/>
      <path id="fullLogo-7" data-name="fullLogo" d="m75.29,164h-3.52v-1.75c-.87,1.17-2.4,1.92-4.12,1.92-3.22,0-5.54-2.1-5.54-5.89v-8.11h3.49v7.61c0,2.22,1.22,3.42,3.07,3.42s3.09-1.2,3.09-3.42v-7.61h3.52v13.83Z" fill="#fff"/>
      <path id="fullLogo-8" data-name="fullLogo" d="m84.02,164.06c-3.47,0-5.89-2.02-6.04-4.59h3.52c.12,1.05,1.1,1.85,2.5,1.85s2.12-.62,2.12-1.42c0-2.47-7.81-.9-7.81-5.97,0-2.3,2.05-4.14,5.47-4.14s5.37,1.82,5.57,4.57h-3.34c-.1-1.07-.95-1.8-2.32-1.8-1.3,0-1.97.52-1.97,1.32,0,2.52,7.66.95,7.76,6.01,0,2.37-2.07,4.17-5.44,4.17Z" fill="#fff"/>
      <path id="fullLogo-9" data-name="fullLogo" d="m91.96,146.32c0-1.15.9-2.05,2.15-2.05s2.15.9,2.15,2.05-.92,2.05-2.15,2.05-2.15-.9-2.15-2.05Zm.37,3.69h3.49v13.83h-3.49v-13.83Z" fill="#fff"/>
      <path id="fullLogo-10" data-name="fullLogo" d="m108.96,156.2c0-2.22-1.22-3.42-3.07-3.42s-3.12,1.2-3.12,3.42v7.64h-3.49v-13.83h3.49v1.72c.9-1.17,2.4-1.92,4.17-1.92,3.22,0,5.52,2.1,5.52,5.92v8.11h-3.49v-7.64Z" fill="#fff"/>
      <path id="fullLogo-11" data-name="fullLogo" d="m121.81,164.06c-4.02,0-6.94-2.8-6.94-7.14s2.85-7.14,6.94-7.14,6.81,2.72,6.81,6.84c0,.45-.02.9-.1,1.35h-10.11c.17,2.05,1.57,3.19,3.32,3.19,1.5,0,2.32-.75,2.77-1.67h3.77c-.75,2.55-3.04,4.57-6.46,4.57Zm-3.37-8.44h6.56c-.05-1.82-1.5-2.97-3.29-2.97-1.67,0-2.99,1.07-3.27,2.97Z" fill="#fff"/>
      <path id="fullLogo-12" data-name="fullLogo" d="m136.46,164.06c-3.47,0-5.89-2.02-6.04-4.59h3.52c.12,1.05,1.1,1.85,2.5,1.85s2.12-.62,2.12-1.42c0-2.47-7.81-.9-7.81-5.97,0-2.3,2.05-4.14,5.47-4.14s5.37,1.82,5.57,4.57h-3.34c-.1-1.07-.95-1.8-2.32-1.8-1.3,0-1.97.52-1.97,1.32,0,2.52,7.66.95,7.76,6.01,0,2.37-2.07,4.17-5.44,4.17Z" fill="#fff"/>
      <path id="fullLogo-13" data-name="fullLogo" d="m150.06,164.06c-3.47,0-5.89-2.02-6.04-4.59h3.52c.12,1.05,1.1,1.85,2.5,1.85s2.12-.62,2.12-1.42c0-2.47-7.81-.9-7.81-5.97,0-2.3,2.05-4.14,5.47-4.14s5.37,1.82,5.57,4.57h-3.34c-.1-1.07-.95-1.8-2.32-1.8-1.3,0-1.97.52-1.97,1.32,0,2.52,7.66.95,7.76,6.01,0,2.37-2.07,4.17-5.44,4.17Z" fill="#fff"/>
      <path id="fullLogo-14" data-name="fullLogo" d="m54.18,170.32c3.87,0,7.01,2.07,8.19,5.64h-4.02c-.82-1.67-2.32-2.5-4.19-2.5-3.04,0-5.22,2.22-5.22,5.77s2.17,5.77,5.22,5.77c1.87,0,3.37-.82,4.19-2.52h4.02c-1.17,3.59-4.32,5.64-8.19,5.64-5.02,0-8.84-3.67-8.84-8.89s3.82-8.91,8.84-8.91Z" fill="#fff"/>
      <path id="fullLogo-15" data-name="fullLogo" d="m65.36,169.5h3.49v6.36c.9-1.17,2.45-1.92,4.29-1.92,3.12,0,5.39,2.1,5.39,5.92v8.11h-3.49v-7.64c0-2.22-1.22-3.42-3.07-3.42s-3.12,1.2-3.12,3.42v7.64h-3.49v-18.47Z" fill="#fff"/>
      <path id="fullLogo-16" data-name="fullLogo" d="m87.27,173.91c2.22,0,3.74,1.05,4.57,2.2v-1.97h3.52v13.83h-3.52v-2.02c-.82,1.2-2.4,2.25-4.59,2.25-3.49,0-6.29-2.87-6.29-7.19s2.8-7.09,6.31-7.09Zm.9,3.07c-1.87,0-3.64,1.4-3.64,4.02s1.77,4.12,3.64,4.12,3.67-1.45,3.67-4.07-1.75-4.07-3.67-4.07Z" fill="#fff"/>
      <path id="fullLogo-17" data-name="fullLogo" d="m102.27,187.97h-3.49v-13.83h3.49v2.15c.87-1.42,2.32-2.35,4.24-2.35v3.67h-.92c-2.07,0-3.32.8-3.32,3.47v6.89Z" fill="#fff"/>
      <path id="fullLogo-18" data-name="fullLogo" d="m109.41,177.01h-1.65v-2.87h1.65v-3.42h3.52v3.42h3.1v2.87h-3.1v6.69c0,.92.37,1.32,1.47,1.32h1.62v2.95h-2.2c-2.65,0-4.42-1.12-4.42-4.29v-6.66Z" fill="#fff"/>
      <path id="fullLogo-19" data-name="fullLogo" d="m124.58,188.19c-4.02,0-6.94-2.8-6.94-7.14s2.85-7.14,6.94-7.14,6.81,2.72,6.81,6.84c0,.45-.02.9-.1,1.35h-10.11c.17,2.05,1.57,3.19,3.32,3.19,1.5,0,2.32-.75,2.77-1.67h3.77c-.75,2.55-3.04,4.57-6.46,4.57Zm-3.37-8.44h6.56c-.05-1.82-1.5-2.97-3.29-2.97-1.67,0-2.99,1.07-3.27,2.97Z" fill="#fff"/>
      <path id="fullLogo-20" data-name="fullLogo" d="m137.43,187.97h-3.49v-13.83h3.49v2.15c.87-1.42,2.32-2.35,4.24-2.35v3.67h-.92c-2.07,0-3.32.8-3.32,3.47v6.89Z" fill="#fff"/>
    </g>
    <path id="fullLogo-21" data-name="fullLogo" d="m192.86,146.67c-9.21,0-15.53-6.84-15.53-17.73s6.32-17.73,15.53-17.73c5.71,0,10.36,2.63,12.91,7.9h16.5c-3.51-13.34-14.57-21.59-29.24-21.59-8.65,0-16.09,2.94-21.51,8.02-1.73-1.46-3.85-2.53-6.27-3.03,5.74-1.69,10.04-6.33,10.04-13.51,0-9.37-7.17-15.36-19.24-15.36h-26.67v.17h-16.92v11.43h19.68c-.68,2.06-1.6,3.87-2.76,5.39-2.87,3.79-7.17,5.86-12.66,5.86-11.15,0-17.86-6.89-17.86-18.68,0-11.07,6.62-18.14,16.59-18.14,5.81,0,10.16,2.27,12.51,6.53h17.14c-3.36-13.06-14.42-20.85-29.66-20.85-19.04,0-32.37,13.42-32.37,32.46s13.42,32.37,32.46,32.37c5.23,0,9.84-1.06,13.83-2.86v25.58h27.6c1.86,0,3.61-.14,5.23-.41,1.54,16.53,13.85,27.8,30.83,27.8,14.67,0,25.72-8.16,29.24-21.51h-16.5c-2.55,5.27-7.2,7.9-12.91,7.9Zm-32.24-55.22c0,4.05-2.62,6.16-7.35,6.16h-9.46v-12.41h9.46c4.72,0,7.35,2.19,7.35,6.25Zm-6.16,29.79h-10.64v-13.08h10.47c4.81,0,7.77,2.44,7.77,6.67s-2.78,6.41-7.6,6.41Z" fill="#fff"/>
    <g>
      <path id="fullLogo-22" data-name="fullLogo" d="m60.56,235.57h-8.7l-1.44,4.16h-4.6l7.86-21.88h5.1l7.86,21.88h-4.63l-1.44-4.16Zm-4.35-12.64l-3.16,9.14h6.32l-3.16-9.14Z" fill="#fff"/>
      <path id="fullLogo-23" data-name="fullLogo" d="m78.13,222.11c4.32,0,7.23,2.25,8.17,6.13h-4.73c-.5-1.47-1.66-2.41-3.47-2.41-2.44,0-4.07,1.85-4.07,5.23s1.63,5.2,4.07,5.2c1.81,0,2.94-.81,3.47-2.38h4.73c-.94,3.69-3.85,6.13-8.17,6.13-5.01,0-8.58-3.51-8.58-8.95s3.57-8.95,8.58-8.95Z" fill="#fff"/>
      <path id="fullLogo-24" data-name="fullLogo" d="m97.81,222.11c4.32,0,7.23,2.25,8.17,6.13h-4.73c-.5-1.47-1.66-2.41-3.47-2.41-2.44,0-4.07,1.85-4.07,5.23s1.63,5.2,4.07,5.2c1.81,0,2.94-.81,3.47-2.38h4.73c-.94,3.69-3.85,6.13-8.17,6.13-5.01,0-8.58-3.51-8.58-8.95s3.57-8.95,8.58-8.95Z" fill="#fff"/>
      <path id="fullLogo-25" data-name="fullLogo" d="m113.28,239.73h-4.38v-17.34h4.38v2.69c1.1-1.78,2.91-2.94,5.32-2.94v4.6h-1.16c-2.6,0-4.16,1-4.16,4.35v8.64Z" fill="#fff"/>
      <path id="fullLogo-26" data-name="fullLogo" d="m130.23,240.01c-5.04,0-8.7-3.51-8.7-8.95s3.57-8.95,8.7-8.95,8.54,3.41,8.54,8.58c0,.56-.03,1.13-.13,1.69h-12.67c.22,2.57,1.97,4.01,4.16,4.01,1.88,0,2.91-.94,3.47-2.1h4.73c-.94,3.19-3.82,5.73-8.11,5.73Zm-4.22-10.58h8.23c-.06-2.28-1.88-3.72-4.13-3.72-2.1,0-3.76,1.35-4.1,3.72Z" fill="#fff"/>
      <path id="fullLogo-27" data-name="fullLogo" d="m149.66,222.11c2.28,0,4.48,1.06,5.66,2.69v-8.23h4.44v23.16h-4.44v-2.57c-1.03,1.6-2.97,2.85-5.7,2.85-4.41,0-7.92-3.6-7.92-9.01s3.51-8.89,7.95-8.89Zm1.1,3.85c-2.35,0-4.57,1.75-4.57,5.04s2.22,5.16,4.57,5.16,4.6-1.81,4.6-5.1-2.19-5.1-4.6-5.1Z" fill="#fff"/>
      <path id="fullLogo-28" data-name="fullLogo" d="m162.69,217.76c0-1.44,1.13-2.57,2.69-2.57s2.69,1.13,2.69,2.57-1.16,2.57-2.69,2.57-2.69-1.13-2.69-2.57Zm.47,4.63h4.38v17.34h-4.38v-17.34Z" fill="#fff"/>
      <path id="fullLogo-29" data-name="fullLogo" d="m173.07,225.99h-2.07v-3.6h2.07v-4.29h4.41v4.29h3.88v3.6h-3.88v8.39c0,1.16.47,1.66,1.85,1.66h2.03v3.69h-2.75c-3.32,0-5.54-1.41-5.54-5.38v-8.36Z" fill="#fff"/>
      <path id="fullLogo-30" data-name="fullLogo" d="m192.99,240.01c-5.04,0-8.7-3.51-8.7-8.95s3.57-8.95,8.7-8.95,8.54,3.41,8.54,8.58c0,.56-.03,1.13-.13,1.69h-12.67c.22,2.57,1.97,4.01,4.16,4.01,1.88,0,2.91-.94,3.47-2.1h4.73c-.94,3.19-3.82,5.73-8.11,5.73Zm-4.23-10.58h8.23c-.06-2.28-1.88-3.72-4.13-3.72-2.1,0-3.76,1.35-4.1,3.72Z" fill="#fff"/>
      <path id="fullLogo-31" data-name="fullLogo" d="m212.41,222.11c2.28,0,4.48,1.06,5.66,2.69v-8.23h4.44v23.16h-4.44v-2.57c-1.03,1.6-2.97,2.85-5.7,2.85-4.41,0-7.92-3.6-7.92-9.01s3.51-8.89,7.95-8.89Zm1.1,3.85c-2.35,0-4.57,1.75-4.57,5.04s2.22,5.16,4.57,5.16,4.6-1.81,4.6-5.1-2.19-5.1-4.6-5.1Z" fill="#fff"/>
    </g>
    <a xlink:href="1.4210854715202e-14">
      <rect id="fullLogo-32" data-name="fullLogo" x="46.1" y="202.3" width="176.17" height="2" fill="#fff"/>
    </a>
  </g>
</svg>